#define 38c1233c579f4aecc561592f163b2864OrrF7i9nPZtzENdm_width 200
#define 38c1233c579f4aecc561592f163b2864OrrF7i9nPZtzENdm_height 200
static char 38c1233c579f4aecc561592f163b2864OrrF7i9nPZtzENdm_bits[] = {
  0x00, 0x00, 0x00, 0x81, 0x80, 0xB3, 0x00, 0x04, 0x00, 0x00, 0x00, 0x00, 
  0x00, 0x3C, 0x00, 0x00, 0x00, 0x06, 0x00, 0x2C, 0x00, 0xC0, 0x02, 0x00, 
  0x00, 0x00, 0x00, 0x00, 0x81, 0x00, 0x67, 0x01, 0x10, 0x00, 0x08, 0x00, 
  0x00, 0x80, 0x0F, 0x60, 0xFE, 0x83, 0x03, 0x00, 0x2C, 0x00, 0x80, 0x05, 
  0x00, 0x00, 0x00, 0x00, 0x00, 0x00, 0x01, 0x6E, 0x03, 0x00, 0x00, 0x0C, 
  0x00, 0xF8, 0xFF, 0x03, 0x00, 0xFE, 0xC0, 0x01, 0x00, 0x36, 0x00, 0x00, 
  0x0E, 0x80, 0x00, 0x00, 0x00, 0x00, 0x00, 0x02, 0xDC, 0x02, 0x00, 0x00, 
  0x04, 0xE0, 0x3F, 0x78, 0x00, 0x00, 0x07, 0x70, 0x00, 0x00, 0x36, 0x80, 
  0x00, 0x0C, 0x00, 0x00, 0x00, 0x00, 0x00, 0x00, 0x00, 0xD8, 0x04, 0x00, 
  0x00, 0x06, 0xF0, 0xFF, 0x00, 0x00, 0x00, 0xC0, 0x3F, 0x00, 0x04, 0x16, 
  0x00, 0x00, 0x0C, 0x80, 0x00, 0x00, 0x00, 0x00, 0x08, 0x00, 0xB8, 0x09, 
  0x00, 0x00, 0x22, 0xFC, 0x77, 0x03, 0x00, 0x10, 0x00, 0x00, 0x40, 0x02, 
  0x1E, 0x80, 0x00, 0x04, 0x80, 0x00, 0x00, 0x00, 0x00, 0x08, 0x00, 0x30, 
  0x13, 0x00, 0x00, 0x91, 0x1F, 0x00, 0x00, 0x00, 0x00, 0x00, 0x00, 0x20, 
  0x01, 0x1E, 0x08, 0x00, 0x24, 0x80, 0x00, 0x00, 0x00, 0x00, 0x10, 0x00, 
  0x70, 0x03, 0x00, 0x80, 0xED, 0x07, 0x00, 0x00, 0x00, 0x08, 0x00, 0x00, 
  0x11, 0x01, 0x1B, 0x80, 0x00, 0x36, 0x80, 0x00, 0x00, 0x00, 0x00, 0x00, 
  0x00, 0xF0, 0x06, 0x00, 0xC0, 0x7E, 0x00, 0x00, 0x00, 0x00, 0x04, 0x00, 
  0xC0, 0x88, 0x00, 0x1B, 0x00, 0x00, 0x1B, 0xD0, 0x00, 0x00, 0x00, 0x00, 
  0x00, 0x40, 0xE0, 0x0D, 0x00, 0x60, 0x1F, 0x00, 0x00, 0x00, 0x00, 0x02, 
  0x00, 0x30, 0x04, 0x00, 0x8F, 0x41, 0xC0, 0x1F, 0x48, 0x08, 0x00, 0x00, 
  0x00, 0x00, 0x80, 0xE0, 0x03, 0x18, 0xD0, 0x0F, 0x00, 0x00, 0x00, 0x00, 
  0x00, 0x00, 0x08, 0x03, 0x80, 0xCD, 0x21, 0xFE, 0x07, 0x3F, 0x08, 0x00, 
  0x00, 0x00, 0x00, 0x00, 0xC0, 0x0F, 0x00, 0xE4, 0x3F, 0x00, 0x00, 0x00, 
  0x00, 0x00, 0x00, 0xC6, 0x20, 0x80, 0xF7, 0x00, 0xFF, 0xFF, 0x1F, 0x04, 
  0x00, 0x00, 0x00, 0x00, 0x00, 0x80, 0x1F, 0x00, 0xF0, 0xFF, 0x07, 0x00, 
  0x00, 0x18, 0x00, 0x00, 0x73, 0x00, 0xC0, 0x7B, 0x00, 0xFF, 0xFF, 0x01, 
  0x07, 0x00, 0x00, 0x00, 0x00, 0x00, 0x00, 0xFF, 0xFF, 0xFC, 0x80, 0x3F, 
  0x00, 0x00, 0x04, 0x00, 0x80, 0x19, 0x00, 0xC0, 0x3F, 0xFC, 0x7F, 0xF8, 
  0xFF, 0x83, 0x00, 0x00, 0x00, 0x00, 0x00, 0x00, 0xFF, 0xFF, 0xFF, 0xC3, 
  0xF0, 0x00, 0x00, 0x02, 0x00, 0x80, 0x0E, 0x80, 0xE0, 0xFF, 0xFF, 0xFF, 
  0x03, 0xFE, 0x60, 0x00, 0x10, 0x00, 0x00, 0x00, 0x00, 0xFE, 0xFF, 0xFF, 
  0xDF, 0xC3, 0x03, 0x00, 0x00, 0x00, 0x40, 0x06, 0x40, 0xE0, 0xFF, 0x77, 
  0xF0, 0xFF, 0x01, 0x30, 0x00, 0x10, 0x00, 0x00, 0x00, 0x00, 0xF8, 0x8F, 
  0x1F, 0x3C, 0x0F, 0x0C, 0x00, 0x00, 0x00, 0x40, 0x03, 0x60, 0xE0, 0x07, 
  0x00, 0x80, 0xBF, 0xFF, 0x0E, 0x00, 0x00, 0x00, 0x00, 0x00, 0x00, 0x70, 
  0x3F, 0x00, 0x00, 0x38, 0x00, 0x00, 0x00, 0x00, 0x60, 0x00, 0x30, 0xF0, 
  0xF1, 0x0F, 0x00, 0xE6, 0x00, 0x01, 0x00, 0x08, 0x00, 0x00, 0x00, 0x00, 
  0xC0, 0x76, 0x00, 0x00, 0xE0, 0x00, 0x00, 0x00, 0x00, 0x60, 0x00, 0x18, 
  0xFC, 0x1C, 0x7E, 0x00, 0x8C, 0x01, 0x00, 0x00, 0x08, 0x00, 0x00, 0x00, 
  0x00, 0x80, 0xCC, 0x01, 0x00, 0x80, 0x03, 0x00, 0x00, 0x09, 0x60, 0x00, 
  0x1C, 0x3F, 0x07, 0xE0, 0x01, 0x30, 0x07, 0x14, 0x00, 0x08, 0x00, 0x00, 
  0x00, 0x00, 0x20, 0x99, 0x03, 0x00, 0x00, 0x1E, 0x00, 0x00, 0x08, 0xF0, 
  0x00, 0x8E, 0xFF, 0xFF, 0x9F, 0x03, 0xC0, 0x00, 0x00, 0x00, 0x48, 0x00, 
  0x00, 0x00, 0x00, 0x40, 0x21, 0x0F, 0x00, 0x00, 0x3F, 0x00, 0x10, 0x04, 
  0x30, 0x08, 0xC6, 0xFF, 0xFF, 0xFF, 0x0E, 0x80, 0x03, 0x40, 0x00, 0x10, 
  0x00, 0x00, 0x40, 0x00, 0x40, 0x01, 0xFE, 0x01, 0x00, 0x1C, 0x00, 0x18, 
  0x04, 0x18, 0x08, 0xE6, 0x0F, 0x00, 0xF8, 0x3D, 0x00, 0xFF, 0x1F, 0x00, 
  0x10, 0x00, 0x00, 0x00, 0x00, 0x40, 0x03, 0x04, 0x00, 0x00, 0x20, 0x00, 
  0x0C, 0x02, 0x0C, 0x10, 0xFF, 0x01, 0x00, 0xF0, 0xF3, 0x00, 0x18, 0x00, 
  0x00, 0xB0, 0x00, 0x00, 0x00, 0x00, 0x40, 0x02, 0x10, 0x00, 0x00, 0x80, 
  0xFF, 0x07, 0x02, 0x06, 0x08, 0xFF, 0x00, 0x00, 0xE0, 0x87, 0x03, 0x00, 
  0x00, 0x00, 0xA0, 0x00, 0x00, 0x00, 0x00, 0x80, 0x26, 0x00, 0x00, 0x00, 
  0x00, 0x00, 0x00, 0x02, 0x06, 0x08, 0x7F, 0x00, 0x00, 0xC0, 0x0E, 0x00, 
  0x00, 0x80, 0x00, 0xE0, 0x00, 0x00, 0x04, 0x00, 0x00, 0x44, 0x00, 0x00, 
  0x00, 0x00, 0x00, 0x00, 0x02, 0x23, 0x08, 0x3F, 0x01, 0x00, 0x80, 0x3D, 
  0x00, 0x00, 0x20, 0x00, 0x60, 0x00, 0x00, 0x17, 0x06, 0x00, 0xC0, 0x00, 
  0x00, 0x00, 0x00, 0x00, 0x00, 0x01, 0x0B, 0x84, 0xFF, 0x00, 0xE0, 0x01, 
  0xFB, 0x00, 0x00, 0x00, 0x00, 0x60, 0x00, 0x00, 0x1F, 0x03, 0x00, 0x80, 
  0x03, 0x00, 0x00, 0x00, 0x00, 0x20, 0x81, 0x01, 0x86, 0xFF, 0x07, 0x80, 
  0x0F, 0xF6, 0x01, 0x00, 0x00, 0x00, 0xE0, 0x00, 0x00, 0xCF, 0x00, 0x00, 
  0x00, 0x06, 0x00, 0x00, 0x00, 0x00, 0xB0, 0xC1, 0x01, 0x83, 0xFF, 0x18, 
  0x10, 0x30, 0xCC, 0x03, 0x00, 0x00, 0x80, 0xC0, 0x00, 0x00, 0x67, 0x00, 
  0x00, 0x00, 0x1C, 0x00, 0x00, 0x00, 0x00, 0xC8, 0xF0, 0xFF, 0xC1, 0x3F, 
  0x00, 0x00, 0x40, 0xD8, 0x0F, 0x40, 0x00, 0x40, 0xC0, 0x00, 0x00, 0x77, 
  0x00, 0x00, 0x00, 0x70, 0x00, 0x80, 0xFF, 0xF9, 0x6F, 0xFE, 0x3F, 0xE0, 
  0x1F, 0x00, 0x00, 0x00, 0xA0, 0x7F, 0xC0, 0xF8, 0x20, 0xC0, 0x01, 0x80, 
  0x33, 0x00, 0x00, 0x00, 0xC0, 0x07, 0xF8, 0xFF, 0xFF, 0xFF, 0x0F, 0x00, 
  0xF0, 0x4F, 0x00, 0x00, 0x00, 0x40, 0xFF, 0xFF, 0x0F, 0x10, 0x80, 0x01, 
  0x80, 0x1F, 0x00, 0x00, 0x00, 0x00, 0x00, 0x0F, 0xFE, 0xFF, 0xFF, 0x03, 
  0x18, 0xFC, 0x27, 0x00, 0x00, 0x00, 0xC0, 0xFE, 0xFF, 0x01, 0x00, 0x80, 
  0x01, 0x80, 0x0F, 0x00, 0x00, 0x00, 0x00, 0x00, 0x01, 0xBF, 0xFF, 0xFF, 
  0xFF, 0xFF, 0xFF, 0x16, 0x00, 0x00, 0x00, 0x80, 0xFD, 0x1F, 0x02, 0x02, 
  0x80, 0x01, 0xC0, 0x07, 0x00, 0x00, 0x00, 0x00, 0x00, 0x80, 0x03, 0xC4, 
  0xFF, 0xFF, 0xFF, 0x6F, 0x1E, 0x00, 0x00, 0x00, 0x01, 0xD9, 0x03, 0x00, 
  0x01, 0x80, 0x01, 0xC0, 0x23, 0x00, 0x00, 0x00, 0x00, 0x00, 0xC0, 0x01, 
  0x00, 0x7F, 0xFF, 0xE3, 0x31, 0x8E, 0x00, 0x00, 0x00, 0x02, 0xBA, 0x07, 
  0x00, 0x00, 0x80, 0x01, 0xF2, 0x09, 0x00, 0x00, 0x00, 0x00, 0x00, 0xC0, 
  0x00, 0x00, 0xFE, 0xFC, 0x0F, 0x0F, 0x26, 0x00, 0x00, 0x00, 0x04, 0xF4, 
  0x3F, 0x00, 0x00, 0x80, 0x21, 0xFA, 0x06, 0x00, 0x00, 0x00, 0x00, 0x00, 
  0x60, 0x3F, 0x02, 0xF8, 0xF9, 0x7F, 0x00, 0x16, 0x00, 0x00, 0x00, 0x08, 
  0xE8, 0xFF, 0x0F, 0x00, 0x80, 0x21, 0x7D, 0x01, 0x00, 0x00, 0x00, 0x00, 
  0x00, 0x90, 0xFF, 0x04, 0xD8, 0xF7, 0xFF, 0x01, 0x0B, 0x03, 0x00, 0x00, 
  0x00, 0xD0, 0xFF, 0x3F, 0x00, 0x80, 0x01, 0xFD, 0x01, 0x00, 0x00, 0x00, 
  0x00, 0x00, 0xCC, 0x81, 0x09, 0xB0, 0xE7, 0xFF, 0xCF, 0xC1, 0x00, 0x00, 
  0x00, 0x40, 0xA0, 0xFF, 0xFF, 0x00, 0x80, 0x00, 0xFC, 0x00, 0x00, 0x00, 
  0x00, 0x00, 0x00, 0xF6, 0x00, 0x13, 0x20, 0x0F, 0xFB, 0xFF, 0x71, 0x00, 
  0x00, 0x00, 0x00, 0x40, 0xFF, 0xF1, 0x01, 0x80, 0x00, 0x7D, 0x00, 0x00, 
  0x00, 0x00, 0x00, 0x00, 0x3D, 0x00, 0x26, 0x20, 0x0F, 0x73, 0x7E, 0x3C, 
  0x00, 0x00, 0x00, 0x00, 0x80, 0xCC, 0xCF, 0x00, 0x80, 0x00, 0x7F, 0x00, 
  0x00, 0x00, 0x00, 0x00, 0x80, 0x0F, 0x00, 0x4C, 0x60, 0x4F, 0xE6, 0x3D, 
  0x0E, 0x00, 0x00, 0x00, 0x00, 0x00, 0x19, 0xFC, 0x00, 0x80, 0x00, 0x7C, 
  0x20, 0x00, 0x00, 0x00, 0x00, 0xC0, 0x07, 0x00, 0x98, 0x60, 0x4F, 0xCD, 
  0xF3, 0x03, 0x00, 0x00, 0xFE, 0x00, 0x00, 0x3A, 0xF0, 0x00, 0xA0, 0x00, 
  0x3E, 0x20, 0x00, 0x00, 0x00, 0x00, 0xC0, 0x03, 0x00, 0x30, 0x60, 0x4F, 
  0x98, 0xC5, 0x03, 0x00, 0xC0, 0xFF, 0x03, 0x00, 0x32, 0xC0, 0x00, 0xA0, 
  0x00, 0x3F, 0x10, 0x00, 0x00, 0x00, 0x00, 0xC0, 0x01, 0x00, 0x20, 0x60, 
  0xCF, 0x30, 0x1B, 0x00, 0x00, 0xF0, 0x03, 0x0F, 0x00, 0x64, 0x00, 0x00, 
  0x40, 0x00, 0x3F, 0x08, 0x00, 0x00, 0x00, 0x00, 0xC0, 0x38, 0x00, 0x40, 
  0x60, 0x9F, 0x71, 0x00, 0x00, 0xE0, 0xFF, 0x00, 0x7C, 0x00, 0xC4, 0x00, 
  0x00, 0x50, 0x10, 0x1F, 0x04, 0x01, 0x80, 0x01, 0x00, 0xE0, 0x0C, 0x00, 
  0x40, 0x60, 0x1E, 0xF3, 0x00, 0x00, 0xFC, 0x3F, 0x03, 0xF8, 0x00, 0x84, 
  0x00, 0x00, 0x38, 0x11, 0x1F, 0x83, 0x00, 0x80, 0x03, 0x00, 0xE0, 0x06, 
  0x00, 0x00, 0xC0, 0x3E, 0xE6, 0x01, 0xC0, 0xFF, 0x7F, 0x00, 0x80, 0x03, 
  0x08, 0x01, 0x00, 0x38, 0x08, 0x9E, 0x41, 0x00, 0x00, 0x06, 0x00, 0xE0, 
  0x03, 0x00, 0x00, 0xC0, 0x3E, 0xCC, 0x81, 0xFF, 0xFF, 0x00, 0x00, 0x00, 
  0x00, 0x00, 0x00, 0x00, 0x94, 0x00, 0x8E, 0x40, 0x00, 0x00, 0x0E, 0x03, 
  0xE0, 0x13, 0x00, 0x00, 0xC0, 0x3C, 0xD8, 0x03, 0x84, 0x0F, 0x00, 0x00, 
  0x00, 0x10, 0x00, 0x00, 0x00, 0x1A, 0x80, 0x4E, 0x20, 0x00, 0x00, 0x02, 
  0x06, 0xE0, 0x09, 0x00, 0x00, 0x80, 0x3C, 0xB0, 0x0F, 0x40, 0x01, 0x0E, 
  0x00, 0x00, 0x24, 0x00, 0x00, 0x00, 0x09, 0x80, 0x2E, 0x10, 0x00, 0x00, 
  0x04, 0x04, 0xE0, 0x05, 0x00, 0x00, 0x80, 0x78, 0x30, 0xFF, 0x00, 0x00, 
  0x00, 0x00, 0x00, 0x18, 0x00, 0x00, 0x00, 0x04, 0x00, 0x0F, 0x08, 0x00, 
  0x00, 0x00, 0x04, 0xE0, 0x11, 0x00, 0x00, 0x00, 0xE8, 0xE8, 0xFE, 0x3F, 
  0x00, 0x00, 0x00, 0x00, 0x30, 0x00, 0x00, 0x03, 0x03, 0x40, 0x0F, 0x04, 
  0x00, 0x00, 0x00, 0x04, 0xE0, 0x08, 0x00, 0x00, 0x08, 0x88, 0xD8, 0x9F, 
  0x1F, 0x20, 0x00, 0x00, 0x00, 0x60, 0x00, 0x00, 0x03, 0x00, 0xC0, 0x07, 
  0x02, 0x00, 0x00, 0x00, 0x44, 0xE0, 0xC1, 0x38, 0x00, 0x00, 0x40, 0x23, 
  0x3F, 0x02, 0x00, 0x20, 0x00, 0x00, 0x80, 0x01, 0x00, 0x0F, 0x00, 0xC0, 
  0x06, 0x01, 0x00, 0x00, 0x00, 0x46, 0xE0, 0x23, 0x00, 0x00, 0x08, 0x00, 
  0x40, 0xFE, 0x01, 0x00, 0x0C, 0x00, 0x00, 0x00, 0x1E, 0x00, 0x3E, 0x00, 
  0xC0, 0x0F, 0x01, 0x40, 0x00, 0x00, 0x26, 0xF4, 0x13, 0x00, 0x00, 0x08, 
  0x00, 0x80, 0xFC, 0x0F, 0x00, 0x02, 0x00, 0x00, 0x00, 0xF8, 0x00, 0x78, 
  0x00, 0x60, 0x03, 0x00, 0x40, 0x08, 0x00, 0x17, 0xF2, 0x0F, 0x00, 0x00, 
  0x10, 0x00, 0x00, 0xF8, 0x3F, 0x3C, 0x00, 0x00, 0x00, 0x00, 0x80, 0x00, 
  0x80, 0x00, 0x60, 0x07, 0x00, 0x20, 0x04, 0x80, 0x0B, 0xF9, 0x07, 0x00, 
  0x00, 0x30, 0x00, 0x00, 0xF0, 0xFF, 0x07, 0x00, 0x00, 0x00, 0x00, 0x00, 
  0x00, 0x00, 0x00, 0x80, 0x03, 0x00, 0x10, 0x03, 0x80, 0x8B, 0xFC, 0x03, 
  0x00, 0x00, 0x60, 0x00, 0x00, 0xC0, 0xFE, 0x03, 0x00, 0x00, 0x00, 0x00, 
  0x06, 0x80, 0x00, 0x00, 0x80, 0x01, 0x00, 0x90, 0x01, 0xC0, 0xE5, 0xFF, 
  0x00, 0x00, 0x00, 0xC0, 0x00, 0x00, 0x80, 0xF9, 0x0F, 0x00, 0x40, 0x00, 
  0x00, 0xFC, 0xA1, 0x00, 0x00, 0x88, 0x01, 0x00, 0xF8, 0x02, 0xE0, 0xF3, 
  0x7F, 0x00, 0x00, 0x00, 0x00, 0x03, 0x00, 0x00, 0xE3, 0x3F, 0x00, 0x20, 
  0x04, 0x00, 0xFC, 0xFF, 0x00, 0x00, 0x80, 0x00, 0x00, 0xF8, 0x03, 0xE0, 
  0xFB, 0x0F, 0x08, 0x04, 0x00, 0x00, 0x0E, 0x00, 0x08, 0xCC, 0xFB, 0x03, 
  0x10, 0x00, 0x00, 0xC0, 0xFF, 0x00, 0x00, 0x80, 0x20, 0x00, 0xEC, 0x01, 
  0xF4, 0xFD, 0x07, 0x80, 0x03, 0x00, 0x00, 0x18, 0x00, 0x00, 0x08, 0xE7, 
  0x0F, 0x88, 0x00, 0x00, 0x00, 0x7C, 0x00, 0x00, 0x00, 0x00, 0x40, 0xFE, 
  0x00, 0xFA, 0xFF, 0xFF, 0xFF, 0x00, 0x00, 0x00, 0x60, 0x00, 0x00, 0x10, 
  0x1E, 0x1F, 0x26, 0x00, 0x00, 0xFE, 0x00, 0x00, 0x00, 0x00, 0x00, 0x40, 
  0x7E, 0x00, 0xFD, 0xFF, 0xFF, 0x7F, 0x00, 0x00, 0x00, 0x80, 0x01, 0x00, 
  0x00, 0x78, 0xFC, 0x1B, 0x00, 0x00, 0x80, 0xC3, 0x00, 0x00, 0x00, 0x10, 
  0x40, 0x1F, 0x80, 0xFE, 0xFF, 0xFF, 0x3F, 0x00, 0x00, 0x00, 0x00, 0x00, 
  0x00, 0x00, 0xF0, 0x19, 0x0C, 0x00, 0x00, 0xE0, 0xFF, 0x00, 0x00, 0x00, 
  0x10, 0xE0, 0x07, 0xC0, 0xFF, 0xFF, 0x0C, 0x3C, 0x00, 0x00, 0x00, 0x80, 
  0x00, 0x00, 0x00, 0xC0, 0x33, 0x07, 0x00, 0x00, 0xF8, 0xFF, 0x00, 0x00, 
  0x04, 0x10, 0xE0, 0xF3, 0xFF, 0xFF, 0xFF, 0x39, 0x00, 0x00, 0x00, 0x00, 
  0xC0, 0x07, 0x00, 0x00, 0x80, 0xC3, 0x01, 0x00, 0x04, 0x9C, 0xFF, 0x00, 
  0x00, 0x04, 0x10, 0xF0, 0xEF, 0xFF, 0x3F, 0x00, 0xC3, 0x00, 0x00, 0x00, 
  0x00, 0x00, 0x3E, 0x00, 0x00, 0x80, 0x07, 0x08, 0x00, 0x04, 0x07, 0x78, 
  0x00, 0x00, 0x02, 0x18, 0xF8, 0xFF, 0x3F, 0x00, 0x00, 0x04, 0x01, 0x00, 
  0x00, 0x00, 0x00, 0xF8, 0x03, 0x00, 0x00, 0x0F, 0x04, 0x00, 0x80, 0x03, 
  0x00, 0x1F, 0x00, 0x02, 0x78, 0xFC, 0xFF, 0x00, 0x00, 0x00, 0x00, 0x04, 
  0x00, 0x00, 0x00, 0x80, 0xE3, 0x10, 0x00, 0x00, 0x17, 0x00, 0x00, 0xC0, 
  0x00, 0x00, 0x30, 0x00, 0x01, 0x38, 0xFE, 0xEF, 0x01, 0x00, 0x00, 0x00, 
  0x18, 0x00, 0x00, 0x00, 0xE0, 0x1F, 0x00, 0x00, 0x00, 0x06, 0x00, 0x00, 
  0xC0, 0x00, 0x00, 0x00, 0xC0, 0x00, 0x79, 0xFF, 0x01, 0x00, 0x00, 0x00, 
  0x00, 0x00, 0x00, 0x00, 0x00, 0x71, 0x78, 0x00, 0x00, 0x00, 0x0E, 0x40, 
  0x00, 0x62, 0x00, 0x00, 0x00, 0x20, 0x00, 0x31, 0x1F, 0x00, 0x00, 0x00, 
  0x00, 0x00, 0x00, 0x00, 0x00, 0x80, 0xFC, 0xC7, 0x01, 0x00, 0x00, 0x1C, 
  0x40, 0x00, 0x62, 0x06, 0x00, 0x00, 0x00, 0x00, 0xB1, 0x03, 0x00, 0x00, 
  0x00, 0x00, 0x00, 0x02, 0x00, 0x00, 0x00, 0x3E, 0xB0, 0x1F, 0x00, 0x00, 
  0x7C, 0x32, 0x00, 0xF2, 0x01, 0x00, 0x00, 0x00, 0x00, 0xB2, 0x07, 0x00, 
  0x00, 0x00, 0x00, 0x00, 0x00, 0x00, 0x00, 0x40, 0x1E, 0x80, 0xFF, 0x01, 
  0x00, 0xF8, 0x19, 0x00, 0x7E, 0x78, 0x00, 0x00, 0x00, 0x00, 0xF2, 0x03, 
  0x00, 0x00, 0x00, 0x00, 0x00, 0x00, 0x00, 0x00, 0x30, 0x9F, 0x07, 0x02, 
  0x00, 0x00, 0xF0, 0x07, 0x00, 0x3F, 0x00, 0x3C, 0x07, 0x00, 0x00, 0xF2, 
  0x02, 0x00, 0x00, 0x00, 0x00, 0x00, 0x0E, 0x00, 0x20, 0x9C, 0x07, 0x08, 
  0x00, 0x00, 0x00, 0x60, 0x00, 0x00, 0x0F, 0x00, 0x00, 0x1F, 0x00, 0x00, 
  0xF2, 0x00, 0x00, 0x00, 0x00, 0x00, 0x00, 0xE0, 0x07, 0x10, 0xCE, 0x01, 
  0x00, 0x00, 0x00, 0x00, 0xC0, 0x01, 0x00, 0xFF, 0x03, 0x00, 0x7F, 0x00, 
  0x00, 0xF2, 0x00, 0x00, 0x00, 0xC0, 0xFE, 0x7F, 0x00, 0x00, 0x10, 0xF3, 
  0x01, 0x00, 0x00, 0x00, 0x00, 0x00, 0x38, 0x80, 0x1F, 0x00, 0x00, 0xE4, 
  0x00, 0x00, 0x78, 0x00, 0x00, 0x00, 0x10, 0xC0, 0xFF, 0x01, 0x00, 0x08, 
  0xF9, 0x00, 0x00, 0x00, 0x00, 0x00, 0x00, 0x00, 0xE0, 0x07, 0x00, 0x00, 
  0x90, 0x01, 0x00, 0x78, 0x00, 0x00, 0x10, 0x84, 0x03, 0x00, 0x04, 0x10, 
  0x80, 0x3C, 0x00, 0x00, 0x00, 0x00, 0x00, 0x00, 0x00, 0xF0, 0x03, 0x00, 
  0x00, 0x20, 0x03, 0x00, 0xF8, 0x01, 0x00, 0x00, 0x73, 0x00, 0x00, 0x30, 
  0x00, 0x80, 0x1C, 0x00, 0x00, 0x00, 0x00, 0x00, 0xF8, 0x00, 0x3F, 0x00, 
  0x00, 0x00, 0x40, 0x00, 0x00, 0xF8, 0x01, 0x00, 0x80, 0x0D, 0x00, 0x00, 
  0x00, 0x00, 0xC0, 0x0E, 0x00, 0x00, 0x00, 0x00, 0x00, 0xE0, 0xFF, 0x0F, 
  0x00, 0x00, 0x00, 0x00, 0x00, 0x00, 0xB8, 0x00, 0x00, 0x40, 0x06, 0x00, 
  0x00, 0x00, 0x00, 0xC0, 0x0F, 0x00, 0x00, 0x00, 0x00, 0x00, 0x00, 0xFE, 
  0xE0, 0x01, 0x00, 0x00, 0x00, 0x00, 0x00, 0x38, 0x00, 0x00, 0x28, 0x03, 
  0x00, 0x07, 0x00, 0x00, 0xE0, 0x27, 0x00, 0x00, 0x00, 0x00, 0x00, 0x00, 
  0x00, 0x00, 0x00, 0x00, 0x00, 0x01, 0x00, 0x00, 0x3C, 0x00, 0x00, 0xA0, 
  0x00, 0x23, 0x00, 0x00, 0x00, 0xE0, 0x13, 0x00, 0x00, 0x00, 0x00, 0x00, 
  0x00, 0x80, 0x7F, 0x00, 0x00, 0x00, 0x00, 0x00, 0x00, 0xBC, 0x08, 0x00, 
  0x24, 0x30, 0x00, 0x00, 0x00, 0x00, 0xB0, 0x0F, 0x00, 0x00, 0x00, 0x00, 
  0x01, 0x00, 0x70, 0xC0, 0xFE, 0x00, 0x00, 0x00, 0x00, 0x00, 0xF8, 0x00, 
  0x00, 0x14, 0x18, 0xFF, 0x0F, 0x00, 0x00, 0xF0, 0x07, 0x00, 0x00, 0x00, 
  0x40, 0x00, 0x00, 0x00, 0x00, 0x00, 0x00, 0x00, 0x00, 0x00, 0x00, 0xF8, 
  0x00, 0x00, 0x0A, 0xFC, 0xFF, 0x0F, 0x00, 0x00, 0xF0, 0x03, 0x00, 0x00, 
  0x00, 0x18, 0x00, 0x01, 0x00, 0x00, 0x00, 0xFF, 0x43, 0x00, 0x00, 0x00, 
  0x78, 0x24, 0x00, 0x0B, 0xFE, 0xC1, 0x1F, 0x00, 0x00, 0xF0, 0x03, 0x00, 
  0x00, 0x00, 0x0F, 0x00, 0xC0, 0x01, 0x07, 0xFE, 0xFF, 0xFF, 0x00, 0x00, 
  0x00, 0x78, 0x1C, 0x00, 0x25, 0xFF, 0x07, 0x78, 0x00, 0x00, 0xB0, 0x01, 
  0x00, 0x00, 0x80, 0x00, 0x00, 0xD8, 0x1F, 0xFF, 0xFF, 0xFF, 0x3F, 0x00, 
  0x00, 0x00, 0x3C, 0x0E, 0x80, 0x81, 0xFF, 0x1F, 0xE2, 0x03, 0x00, 0xD8, 
  0x01, 0x00, 0x00, 0x40, 0x00, 0x20, 0x0C, 0xFC, 0xF1, 0x19, 0xF8, 0xFF, 
  0x00, 0x00, 0x00, 0x1C, 0x07, 0x80, 0x81, 0x03, 0x7C, 0xC4, 0x03, 0x00, 
  0xD8, 0x01, 0x00, 0x00, 0x60, 0x00, 0x10, 0x03, 0xFF, 0xFF, 0x0F, 0x00, 
  0xFF, 0x00, 0x00, 0x00, 0x8E, 0x03, 0x80, 0xC1, 0x01, 0xE0, 0x08, 0x00, 
  0x00, 0xF0, 0x00, 0x00, 0x00, 0x20, 0x00, 0x80, 0x81, 0x80, 0xFF, 0x3F, 
  0x00, 0xF8, 0x00, 0x00, 0x00, 0xE7, 0x00, 0x88, 0xE0, 0x61, 0xC0, 0x19, 
  0x00, 0x00, 0xF0, 0x00, 0x00, 0x40, 0x30, 0x00, 0x80, 0x20, 0x00, 0xFC, 
  0xFF, 0x01, 0xC0, 0x60, 0x00, 0x88, 0x73, 0x0A, 0xC6, 0xE0, 0x80, 0x00, 
  0x5F, 0x00, 0x00, 0xF0, 0x00, 0x00, 0x40, 0x30, 0x04, 0x44, 0x10, 0x00, 
  0x00, 0xFC, 0xF7, 0x87, 0x00, 0x00, 0xC0, 0xB9, 0x01, 0x41, 0x70, 0x00, 
  0x00, 0xFE, 0x01, 0x00, 0xF0, 0x00, 0x00, 0x82, 0x14, 0x04, 0x42, 0xC8, 
  0x03, 0x00, 0xF0, 0x3C, 0x40, 0x1F, 0x00, 0xE0, 0x7C, 0x08, 0x60, 0x38, 
  0x00, 0x00, 0x78, 0x02, 0x00, 0xF0, 0x00, 0x00, 0x82, 0x1C, 0x04, 0x21, 
  0xE0, 0x00, 0x00, 0xC0, 0x0F, 0x80, 0x38, 0x00, 0x70, 0x3E, 0x02, 0x20, 
  0x18, 0x00, 0x80, 0xC0, 0x00, 0x00, 0xF0, 0x00, 0x00, 0x84, 0x1C, 0x86, 
  0x00, 0x30, 0x00, 0x00, 0x00, 0x00, 0x00, 0x60, 0x00, 0x38, 0x9F, 0x00, 
  0x10, 0x1C, 0x04, 0x00, 0x80, 0x01, 0x00, 0xF0, 0x00, 0x00, 0x84, 0x0D, 
  0x42, 0x00, 0x18, 0x00, 0x00, 0x00, 0x00, 0x00, 0x0D, 0x00, 0x18, 0x4F, 
  0x00, 0x08, 0x0E, 0x02, 0x00, 0x10, 0x02, 0x00, 0x70, 0x00, 0x00, 0x88, 
  0x0D, 0x23, 0x00, 0x4C, 0x00, 0x00, 0x00, 0x80, 0x3F, 0x3B, 0x80, 0x9C, 
  0x17, 0x00, 0x00, 0x87, 0x01, 0x00, 0x60, 0x08, 0x00, 0x78, 0x00, 0x00, 
  0x92, 0x8F, 0x11, 0x00, 0x24, 0x00, 0x00, 0x00, 0x70, 0x00, 0x67, 0x46, 
  0xCE, 0x0F, 0x00, 0x00, 0xC7, 0x00, 0x00, 0xC0, 0x00, 0x00, 0x3E, 0x20, 
  0x00, 0x22, 0xCF, 0x0C, 0x00, 0x06, 0x00, 0x00, 0x00, 0x0E, 0x00, 0xCE, 
  0x33, 0xC3, 0x07, 0x00, 0xC0, 0x73, 0x00, 0x00, 0x80, 0x03, 0x80, 0x0F, 
  0x10, 0x00, 0x20, 0x6F, 0x07, 0x00, 0x06, 0x00, 0x00, 0x80, 0x01, 0x00, 
  0x1D, 0x80, 0xE1, 0x03, 0x40, 0xE2, 0x19, 0x0F, 0x00, 0x00, 0x0F, 0xF8, 
  0x23, 0x0F, 0x00, 0x40, 0xFF, 0x01, 0x00, 0x07, 0x02, 0x00, 0x00, 0x90, 
  0x01, 0x7B, 0xC0, 0xE0, 0x03, 0x20, 0xE1, 0xCC, 0x01, 0x04, 0x00, 0xFE, 
  0xFF, 0xFF, 0x01, 0x01, 0x80, 0xFF, 0x00, 0x08, 0x03, 0x03, 0x00, 0x00, 
  0x40, 0x00, 0xF3, 0x7C, 0xD0, 0x01, 0x00, 0x71, 0x66, 0x00, 0x00, 0x00, 
  0xFF, 0xFF, 0xFF, 0xE3, 0x01, 0x80, 0x7F, 0x00, 0xC0, 0x05, 0x01, 0x00, 
  0x00, 0x00, 0x7F, 0xF3, 0x01, 0xF8, 0x01, 0x00, 0x39, 0x33, 0x00, 0x00, 
  0x00, 0xF8, 0xE3, 0xFF, 0xFF, 0x00, 0x80, 0x3F, 0x00, 0xE0, 0x83, 0x01, 
  0x02, 0x81, 0xF0, 0x03, 0xE6, 0x7F, 0xFC, 0x00, 0x80, 0x9C, 0x1D, 0x00, 
  0x00, 0xC0, 0x00, 0x00, 0xFE, 0x0F, 0x00, 0xC0, 0x5F, 0x00, 0xF0, 0x81, 
  0x00, 0xC0, 0x60, 0x78, 0x00, 0xC6, 0xFF, 0x7F, 0x00, 0x80, 0x8C, 0x0F, 
  0x00, 0x00, 0x00, 0x78, 0x00, 0xF8, 0x3C, 0x00, 0x80, 0x3F, 0x00, 0xF8, 
  0x40, 0x00, 0x20, 0x10, 0x1E, 0x00, 0x84, 0xFF, 0x1F, 0x08, 0x00, 0xC6, 
  0x07, 0x00, 0x00, 0x08, 0x00, 0x80, 0xF1, 0x63, 0x00, 0x80, 0x3F, 0x00, 
  0x7E, 0x00, 0x00, 0x10, 0x8E, 0x07, 0x00, 0x0C, 0xFF, 0x07, 0x06, 0x04, 
  0xF6, 0x33, 0x00, 0x00, 0x00, 0x00, 0x00, 0xE3, 0x06, 0x00, 0x80, 0x1F, 
  0xC0, 0x1F, 0x00, 0x00, 0x08, 0xE3, 0x03, 0x00, 0x18, 0xFE, 0xDF, 0x03, 
  0x22, 0xFF, 0x0F, 0x00, 0x00, 0x00, 0x00, 0x0C, 0x86, 0x04, 0x00, 0x80, 
  0x0F, 0x80, 0x07, 0x00, 0x00, 0xC4, 0xF1, 0x00, 0x00, 0x30, 0xF8, 0xFF, 
  0x07, 0xD0, 0xFF, 0x03, 0x00, 0x00, 0x00, 0x00, 0x00, 0x80, 0x09, 0x00, 
  0x80, 0x03, 0xC0, 0x01, 0x08, 0x06, 0x62, 0xF8, 0x77, 0x01, 0x08, 0xB0, 
  0xFF, 0x3F, 0xFC, 0xFF, 0x00, 0x00, 0x04, 0x00, 0x00, 0x00, 0x00, 0x11, 
  0x00, 0xC0, 0x01, 0xC0, 0x00, 0x06, 0x03, 0x11, 0xFE, 0x1F, 0x30, 0x10, 
  0x30, 0xEE, 0xFF, 0xFF, 0x3F, 0x00, 0x00, 0x02, 0x00, 0x00, 0x60, 0x00, 
  0x03, 0x00, 0xE8, 0x00, 0x30, 0x00, 0xC1, 0x81, 0x18, 0xFF, 0x01, 0x80, 
  0x20, 0x40, 0x98, 0xFF, 0xFF, 0x1F, 0x00, 0x00, 0x01, 0x00, 0x00, 0xCF, 
  0x00, 0x02, 0x00, 0xE4, 0x00, 0x0E, 0x00, 0xE0, 0x40, 0x8C, 0x0F, 0x00, 
  0x00, 0x00, 0x80, 0x30, 0xEF, 0xFF, 0x0F, 0x00, 0x80, 0x00, 0x40, 0xE0, 
  0xFF, 0x01, 0x06, 0x00, 0x76, 0x00, 0x02, 0x0C, 0x3E, 0x20, 0xE0, 0x27, 
  0x00, 0x20, 0x00, 0x00, 0x60, 0x84, 0xFF, 0x03, 0x00, 0x80, 0x00, 0x00, 
  0xF8, 0xFF, 0x07, 0x0C, 0x00, 0xBF, 0x00, 0x81, 0x87, 0x0F, 0x30, 0xE0, 
  0x12, 0x00, 0xFC, 0x00, 0x00, 0xC0, 0x48, 0xBE, 0x01, 0x00, 0x40, 0x80, 
  0x00, 0x1E, 0xE0, 0x1F, 0x3E, 0x80, 0xCF, 0x00, 0xF0, 0xC1, 0x03, 0x0C, 
  0x70, 0x09, 0x00, 0x9F, 0x00, 0x00, 0x80, 0x19, 0x01, 0x00, 0x00, 0x20, 
  0x40, 0xC0, 0x07, 0x80, 0xF7, 0x7C, 0xF0, 0x67, 0x20, 0x1C, 0xE8, 0x00, 
  0x07, 0x30, 0x01, 0xC0, 0x01, 0x00, 0x00, 0x00, 0x11, 0x00, 0x00, 0x00, 
  0x30, 0x60, 0xE0, 0x03, 0x00, 0xEF, 0xF9, 0xFB, 0x9B, 0x19, 0x0E, 0x18, 
  0x80, 0x01, 0xB8, 0x04, 0x70, 0x00, 0x00, 0x00, 0x00, 0x20, 0x00, 0x00, 
  0x00, 0x18, 0x30, 0xF0, 0x00, 0x00, 0x1C, 0xE7, 0xFF, 0x47, 0x0C, 0x03, 
  0x02, 0x40, 0x00, 0xB8, 0x00, 0x3A, 0x80, 0x00, 0x00, 0x00, 0x40, 0x00, 
  0x08, 0x00, 0x0C, 0x18, 0x78, 0x00, 0x00, 0x78, 0xCE, 0x3F, 0x23, 0x80, 
  0x09, 0xC0, 0x01, 0x00, 0x98, 0x02, 0x8D, 0x1F, 0x00, 0x00, 0x00, 0x00, 
  0x00, 0x24, 0x80, 0x02, 0x0C, 0x38, 0xC0, 0x03, 0x70, 0xF9, 0xE6, 0x11, 
  0xC0, 0x00, 0x78, 0x00, 0x00, 0xDE, 0xC1, 0xFE, 0xFF, 0x00, 0x00, 0x00, 
  0x00, 0x00, 0x39, 0xE0, 0x21, 0x06, 0x18, 0xF8, 0x13, 0xE0, 0xE0, 0x3F, 
  0x08, 0xE0, 0x00, 0x0E, 0x00, 0x80, 0xCF, 0xE1, 0xFF, 0xFF, 0x00, 0x00, 
  0x00, 0x00, 0x80, 0x4E, 0x70, 0xF8, 0x07, 0x18, 0xF0, 0x07, 0xE0, 0x00, 
  0x00, 0x04, 0x70, 0x00, 0x03, 0x00, 0xE0, 0xE3, 0xF8, 0x07, 0x38, 0x00, 
  0x00, 0x00, 0x00, 0x00, 0x23, 0xF8, 0xFF, 0x01, 0x0C, 0x1E, 0x00, 0xE0, 
  0x00, 0x00, 0x02, 0x38, 0x80, 0x01, 0x00, 0xFC, 0x78, 0xFE, 0x00, 0x70, 
  0x00, 0x00, 0x00, 0x00, 0x80, 0x01, 0xFC, 0x7F, 0x00, 0x0C, 0x0F, 0x20, 
  0xE0, 0x01, 0x00, 0x00, 0x18, 0x40, 0x04, 0xE4, 0xFF, 0xFF, 0xFF, 0x1F, 
  0xC0, 0x00, 0x00, 0x00, 0x00, 0xD0, 0x00, 0xFE, 0x07, 0x02, 0x0C, 0xFF, 
  0x00, 0xE0, 0x01, 0x00, 0x60, 0x0C, 0x30, 0xFF, 0xFF, 0xFF, 0xFF, 0x33, 
  0x3F, 0x00, 0x00, 0x00, 0x00, 0x00, 0x40, 0x02, 0x3F, 0x00, 0x00, 0x88, 
  0x3F, 0x40, 0xE0, 0x03, 0x00, 0x20, 0x06, 0x98, 0xFF, 0xFF, 0xFF, 0x7F, 
  0x00, 0x7C, 0x00, 0x00, 0x10, 0x00, 0x00, 0x20, 0x80, 0x0F, 0x00, 0x00, 
  0x88, 0x07, 0x40, 0xC0, 0x0F, 0x00, 0x30, 0x03, 0xEE, 0xFF, 0xFF, 0xFF, 
  0xAF, 0x03, 0xF9, 0x01, 0x80, 0x0C, 0x00, 0x00, 0x36, 0x80, 0x87, 0x00, 
  0x00, 0xCD, 0x01, 0x40, 0x80, 0xFE, 0x06, 0x98, 0x89, 0xF7, 0xFF, 0xEF, 
  0x03, 0x00, 0x04, 0xB2, 0x07, 0x40, 0x02, 0x00, 0x00, 0x19, 0xC0, 0x03, 
  0x00, 0x00, 0xEE, 0x0C, 0x02, 0x90, 0x1C, 0x00, 0xEE, 0xE4, 0xFF, 0xF3, 
  0xFF, 0x3F, 0x00, 0x08, 0x60, 0x3E, 0x20, 0x03, 0x00, 0xC0, 0x08, 0xC0, 
  0x03, 0x93, 0x3F, 0xFE, 0x3F, 0x04, 0x90, 0x78, 0x00, 0x37, 0xFF, 0xFF, 
  0xC1, 0x1F, 0xF8, 0x00, 0x10, 0xE0, 0x88, 0x80, 0x01, 0x00, 0x30, 0x06, 
  0xC0, 0x83, 0x01, 0x00, 0xFF, 0xFF, 0x28, 0x80, 0xF0, 0xFF, 0xDF, 0xFF, 
  0xFF, 0x80, 0x00, 0xC0, 0x01, 0x00, 0xC0, 0x03, 0x90, 0x00, 0x00, 0x01, 
  0x43, 0xE0, 0xC3, 0x00, 0xC0, 0x7F, 0xE0, 0x69, 0x00, 0xC0, 0xFF, 0xFF, 
  0xFF, 0xFF, 0x03, 0x00, 0x00, 0x02, 0x00, 0xC0, 0x07, 0x90, 0x00, 0x00, 
  0x40, 0x60, 0x62, 0x41, 0x00, 0xFE, 0x1F, 0x80, 0x53, 0x00, 0x00, 0xFF, 
  0xFF, 0xFF, 0xFF, 0x3F, 0x00, 0x00, 0x00, 0x00, 0xC0, 0x0D, 0xC0, 0x00, 
  0x00, 0x10, 0x38, 0xE1, 0x60, 0xF0, 0xFF, 0x0F, 0x00, 0xC3, 0x00, 0x00, 
  0x7E, 0x00, 0x08, 0x7F, 0xF0, 0x00, 0x00, 0x00, 0x00, 0x80, 0x19, 0xC0, 
  0x60, 0x00, 0x00, 0x8C, 0xE0, 0x20, 0xF8, 0xFF, 0xFF, 0x00, 0xE6, 0x00, 
  0x00, 0xF4, 0x00, 0x10, 0xEC, 0xC1, 0x3F, 0x00, 0x00, 0x00, 0xC0, 0x3B, 
  0xC0, 0x21, 0x00, 0x20, 0x67, 0xE0, 0x00, 0xFC, 0x00, 0xF0, 0x03, 0xCA, 
  0x01, 0x00, 0xF4, 0x01, 0x64, 0x98, 0x83, 0xFF, 0x01, 0x00, 0x00, 0xC0, 
  0xF3, 0xC0, 0x30, 0x08, 0x80, 0x31, 0xE0, 0x00, 0x1E, 0x00, 0x80, 0x00, 
  0x02, 0x00, 0x00, 0xF4, 0x01, 0x88, 0x20, 0x0E, 0xFC, 0x07, 0x00, 0x00, 
  0xC0, 0xC7, 0xC0, 0x18, 0x01, 0x60, 0x0C, 0xE0, 0x00, 0x0E, 0x00, 0x00, 
  0x00, 0x00, 0x00, 0x00, 0x74, 0x02, 0x10, 0x42, 0x1C, 0xE0, 0x1F, 0x00, 
  0x00, 0xE0, 0x0D, 0xE0, 0x4C, 0x00, 0xFE, 0x03, 0xE0, 0x00, 0x06, 0x00, 
  0x00, 0x00, 0x00, 0x00, 0x00, 0x24, 0x02, 0x00, 0x80, 0x3C, 0x00, 0x3F, 
  0x00, 0x00, 0xE4, 0x0D, 0xE0, 0x66, 0xFF, 0x7F, 0x00, 0x60, 0x00, 0x03, 
  0x00, 0x00, 0x00, 0x00, 0x00, 0x00, 0x22, 0x04, 0x00, 0x10, 0x71, 0x00, 
  0xEE, 0x00, 0x00, 0xA4, 0x39, 0x60, 0xFE, 0xFF, 0x03, 0x00, 0x60, 0x00, 
  0x03, 0x00, 0x00, 0x20, 0x00, 0x00, 0x00, 0x42, 0x09, 0x00, 0x20, 0xC0, 
  0x00, 0xF8, 0x03, 0x00, 0x80, 0xF3, 0x60, 0x3F, 0x7F, 0x00, 0x00, 0x30, 
  0x00, 0x11, 0x00, 0x00, 0x00, 0x00, 0x00, 0x00, 0x00, 0x00, 0x00, 0x40, 
  0x00, 0x01, 0xF0, 0x0F, 0x00, 0x00, 0xC7, 0xE0, 0xDF, 0x18, 0x00, 0x00, 
  0x30, 0x80, 0x19, 0x00, 0x00, 0x40, 0x00, 0x00, 0x00, 0x80, 0x00, 0x00, 
  0x80, 0x01, 0x04, 0xC0, 0x3D, 0x00, 0x08, 0x1E, 0xE0, 0x3F, 0x00, 0x00, 
  0x20, 0x18, 0x80, 0x0D, 0x00, 0x00, 0x00, 0x00, 0x00, 0x00, 0x00, 0x09, 
  0x80, 0x00, 0x03, 0x00, 0x80, 0x73, 0x00, 0x00, 0xBE, 0xE0, 0x0F, 0x00, 
  0x00, 0x10, 0x1C, 0xC0, 0x07, 0x00, 0x00, 0x00, 0x00, 0x00, 0x00, 0x00, 
  0x00, 0x00, 0x02, 0x0C, 0x00, 0x00, 0x87, 0x00, 0x00, 0x28, 0xF0, 0x07, 
  0x00, 0x00, 0x00, 0x0C, 0xC0, 0x03, 0x00, 0x00, 0x00, 0x00, 0x00, 0x00, 
  0x00, 0x00, 0x00, 0x00, 0x20, 0x03, 0x10, 0x06, 0x00, 0x04, 0x00, 0xF8, 
  0x03, 0x00, 0x00, 0x08, 0x06, 0xC0, 0x03, 0x00, 0x00, 0x00, 0x00, 0x00, 
  0x00, 0x00, 0x00, 0x00, 0x00, 0x00, 0x00, 0x00, 0x0C, 0x00, 0x04, 0x00, 
  0xF9, 0x01, 0x00, 0x00, 0x00, 0x06, 0x40, 0x03, 0x00, 0x00, 0x00, 0x00, 
  0x00, 0x00, 0x00, 0x00, 0x00, 0x00, 0x00, 0x00, 0x00, 0x18, 0x00, 0x00, 
  0x00, 0xF9, 0x00, 0x00, 0x00, 0x04, 0x06, 0x60, 0x07, 0x00, 0x00, 0x00, 
  0x00, 0x00, 0x00, 0x00, 0x00, 0x00, 0x00, 0x40, 0x00, 0x00, 0x10, 0x00, 
  0x08, 0x00, 0x78, 0x00, 0x00, 0x00, 0x02, 0x02, 0xA0, 0x07, 0x00, 0x00, 
  0x00, 0x00, 0x00, 0x00, 0x00, 0x00, 0x00, 0x00, 0x30, 0x00, 0x00, 0x20, 
  0x00, 0x00, 0x00, 0x79, 0x80, 0xF8, 0x00, 0x41, 0x03, 0xC0, 0x03, 0x00, 
  0x00, 0x00, 0x00, 0x00, 0x00, 0x00, 0x00, 0x00, 0x00, 0x1C, 0x00, 0x00, 
  0x20, 0x00, 0x10, 0x00, 0x79, 0x00, 0xFF, 0xC3, 0x00, 0x03, 0xE0, 0x01, 
  0x00, 0x00, 0x00, 0x00, 0x00, 0x00, 0x00, 0x00, 0x00, 0x00, 0x03, 0x00, 
  0x00, 0x08, 0x00, 0x00, 0x00, 0x79, 0xF0, 0xFF, 0x70, 0x20, 0x01, 0x70, 
  0x00, 0x00, 0x00, 0x00, 0x38, 0x00, 0x00, 0x00, 0x00, 0x00, 0x00, 0x80, 
  0x00, 0xC0, 0x48, 0x00, 0x00, 0x00, 0x39, 0xF0, 0x01, 0x03, 0x00, 0x01, 
  0x38, 0x00, 0x00, 0x00, 0x00, 0x0E, 0x00, 0x00, 0x00, 0x00, 0x00, 0x00, 
  0x40, 0x00, 0x80, 0x91, 0x00, 0x00, 0x00, 0x39, 0x7C, 0x00, 0x04, 0x00, 
  0x11, 0x1C, 0x00, 0x00, 0x00, 0x00, 0x06, 0x00, 0x00, 0x00, 0x00, 0x00, 
  0x00, 0x00, 0x80, 0x00, 0xB6, 0x01, 0x00, 0x00, 0x1D, 0xBE, 0x0C, 0x00, 
  0x88, 0x18, 0x8C, 0x00, 0x00, 0x00, 0x00, 0x03, 0x00, 0x00, 0x04, 0x00, 
  0x00, 0x40, 0x00, 0x60, 0x00, 0x6C, 0x01, 0x00, 0x00, 0x1D, 0xFF, 0x0F, 
  0x03, 0xC0, 0x1C, 0x26, 0x00, 0x00, 0x00, 0x00, 0x01, 0x00, 0x00, 0x00, 
  0x00, 0x00, 0x00, 0x10, 0x10, 0x06, 0xC8, 0x04, 0x00, 0x00, 0xEF, 0xFF, 
  0x9F, 0xFF, 0xF1, 0x0C, 0x16, 0x60, 0x00, 0x00, 0x80, 0x01, 0x00, 0x00, 
  0x00, 0x00, 0x00, 0x00, 0x08, 0xCC, 0x01, 0x90, 0x11, 0x00, 0x00, 0xFF, 
  0x7B, 0xFE, 0xFF, 0x3F, 0x06, 0x03, 0x10, 0x00, 0x00, 0x80, 0x00, 0x00, 
  0x00, 0x80, 0x00, 0x00, 0x00, 0x04, 0x66, 0x00, 0x00, 0x03, 0x00, 0x00, 
  0x7F, 0xE0, 0xF8, 0xFF, 0x07, 0x87, 0x03, 0x08, 0x00, 0x00, 0xC0, 0x00, 
  0x00, 0x00, 0x1E, 0x00, 0x00, 0x00, 0x02, 0x9E, 0x1F, 0x00, 0x06, 0x00, 
  0x00, 0x07, 0x80, 0xE3, 0xFF, 0xFF, 0x83, 0x01, 0x06, 0x00, 0x80, 0x40, 
  0x00, 0x80, 0x61, 0x00, 0x00, 0x07, 0xF0, 0x01, 0xEF, 0x7F, 0x00, 0x1C, 
  0x00, 0x00, 0x41, 0x00, 0x07, 0xFE, 0xFF, 0xC0, 0x01, 0x11, 0x14, 0x60, 
  0x60, 0x00, 0x80, 0x00, 0x00, 0xF0, 0x01, 0x1C, 0x04, 0x77, 0x9C, 0x81, 
  0x70, 0x00, 0x00, 0x00, 0x02, 0x0C, 0x60, 0x78, 0xCC, 0x80, 0xFC, 0x07, 
  0x00, 0x30, 0x00, 0x80, 0x00, 0x00, 0xFE, 0xC0, 0x07, 0x82, 0x1B, 0x30, 
  0x03, 0xC0, 0x01, 0x00, 0x00, 0x00, 0x18, 0xC0, 0xE4, 0x67, 0x40, 0xFE, 
  0x0B, 0x00, 0x10, 0x00, 0x80, 0x00, 0x80, 0x6F, 0xE0, 0x80, 0x81, 0x0D, 
  0x40, 0x06, 0x00, 0x03, 0x00, 0x00, 0x00, 0x20, 0x80, 0x18, 0x70, 0x60, 
  0xFF, 0x01, 0x00, 0x18, 0x00, 0x80, 0x00, 0xE0, 0x03, 0x04, 0xC0, 0xC0, 
  0x07, 0x80, 0x0C, 0x00, 0x00, 0x00, 0x00, 0x00, 0x40, 0x80, 0xC0, 0x9F, 
  0xA0, 0x1F, 0x00, 0x00, 0x04, 0x00, 0x80, 0x80, 0xFF, 0x80, 0x00, 0x20, 
  0xC0, 0x03, 0x00, 0x19, 0x00, 0x00, 0x80, 0x00, 0x00, 0x80, 0x00, 0x01, 
  0x40, 0xF0, 0x1F, 0x00, 0x00, 0x00, 0x00, 0x80, 0x60, 0x3F, 0x00, 0xFC, 
  0x07, 0xC0, 0x13, 0x00, 0x32, 0x00, 0x00, 0xE0, 0x00, 0x00, 0x00, 0x00, 
  0x03, 0x20, 0xD0, 0x07, 0x00, 0x00, 0x00, 0x00, 0x80, 0x70, 0x02, 0x01, 
  0x07, 0x00, 0xE0, 0x09, 0x00, 0xE0, 0x00, 0x00, 0x70, 0x02, 0x00, 0x00, 
  0x00, 0x04, 0x00, 0xF8, 0x03, 0x01, 0x00, 0x00, 0x00, 0xC0, 0x18, 0xC0, 
  0x90, 0x01, 0x00, 0xE0, 0x04, 0x00, 0x80, 0x03, 0x00, 0x98, 0x00, 0x00, 
  0x00, 0x00, 0x00, 0x00, 0xF8, 0x21, 0x00, 0x10, 0x01, 0x00, 0x48, 0x0C, 
  0x20, 0x1E, 0x00, 0x00, 0xF0, 0x06, 0x00, 0x00, 0x0E, 0x00, 0x64, 0x00, 
  0x00, 0x08, 0x00, 0x00, 0x00, 0xF8, 0x09, 0x00, 0x80, 0x00, 0x00, 0x60, 
  0x06, 0x80, 0x3C, 0x00, 0x00, 0x78, 0x01, 0x00, 0x00, 0x18, 0x00, 0x10, 
  0x00, 0x00, 0x00, 0x00, 0x00, 0x00, 0xFC, 0x04, 0x00, 0x40, 0x00, 0x00, 
  0x24, 0x03, 0x40, 0x02, 0x00, 0x00, 0xF8, 0x00, 0x00, 0x00, 0x40, 0x00, 
  0x08, 0x00, 0x00, 0x40, 0x00, 0x00, 0x00, 0x7E, 0x43, 0x00, 0x00, 0x00, 
  0x00, 0xB0, 0x03, 0x00, 0x09, 0x00, 0x00, 0x3C, 0x00, 0x00, 0x00, 0x00, 
  0x00, 0x44, 0x00, 0x00, 0x80, 0x00, 0x00, 0x00, 0x9E, 0x79, 0x00, 0x00, 
  0x00, 0x00, 0x9A, 0x01, 0x80, 0xFF, 0x0F, 0x00, 0xFF, 0x01, 0x00, 0x00, 
  0x00, 0x00, 0x80, 0x00, 0x00, 0x00, 0x00, 0x00, 0x00, 0xCF, 0x07, 0x00, 
  0x00, 0x00, 0x00, 0xC8, 0x00, 0xE0, 0xE3, 0x00, 0xE0, 0xFF, 0xFF, 0x1F, 
  0x00, 0x00, 0x00, 0x30, 0x00, 0x00, 0x00, 0x00, 0x00, 0x80, 0xFF, 0x0F, 
  0x00, 0xB3, 0x00, 0x00, 0x6F, 0x00, 0xF0, 0xFF, 0x03, 0xF8, 0xFF, 0x1F, 
  0x00, 0x00, 0x00, 0x00, 0x1C, 0x00, 0x00, 0x00, 0x00, 0x00, 0xC0, 0xFF, 
  0x7F, 0xC0, 0x1F, 0x00, 0x00, 0x37, 0x00, 0xFC, 0xFF, 0xFF, 0xFF, 0x0F, 
  0x00, 0x00, 0x00, 0xC0, 0x03, 0x0E, 0x00, 0x00, 0x00, 0x00, 0x00, 0xE0, 
  0xC7, 0xFF, 0xFF, 0x1F, 0x00, 0x00, 0x0B, 0x00, 0xFE, 0xFF, 0xFF, 0xFF, 
  0xFF, 0x7B, 0x0C, 0x80, 0x03, 0x0F, 0x07, 0x00, 0x00, 0xB0, 0x01, 0x00, 
  0xF8, 0xFF, 0xC0, 0x3F, 0x78, 0x00, 0x80, 0x03, 0x40, 0xFF, 0xFF, 0xFF, 
  0xFF, 0xFF, 0x07, 0x60, 0x40, 0x00, 0xF8, 0x01, 0x00, 0x00, 0x00, 0x0F, 
  0x00, 0xFE, 0x7F, 0x84, 0xFF, 0x01, 0x00, 0x88, 0x03, 0xA0, 0xFF, 0xCF, 
  0x7F, 0x06, 0x7E, 0x1E, 0xE0, 0x07, 0xFE, 0x01, 0x00, 0x00, 0x00, 0x80, 
  0xFF, 0xC7, 0xFF, 0xFF, 0x19, 0xFE, 0x07, 0x00, 0x88, 0x03, 0xB0, 0xC7, 
  0x1F, 0xFE, 0x00, 0xF8, 0x3C, 0xE0, 0xFF, 0x1F, 0x07, 0x00, 0x00, 0x00, 
  0x0F, 0xFF, 0xFF, 0xFF, 0xFF, 0x13, 0x08, 0x0E, 0x00, 0x88, 0x01, 0xD0, 
  0x03, 0x67, 0xFC, 0x03, 0xF0, 0xF9, 0x03, 0xFE, 0x00, 0x00, 0x00, 0x00, 
  0xF0, 0x01, 0xF8, 0xFF, 0xFF, 0xFF, 0x0F, 0x90, 0x1C, 0x00, 0xC8, 0x01, 
  0xF0, 0x01, 0x4E, 0xF0, 0x0F, 0xC0, 0xF7, 0x1F, 0x00, 0x00, 0x00, 0x00, 
  0x00, 0x3E, 0x00, 0x42, 0xFE, 0x7C, 0xF0, 0x0E, 0x20, 0x71, 0x00, 0xC4, 
  0x00, 0xF8, 0x00, 0x9E, 0xC0, 0x1F, 0xC0, 0xEF, 0xFD, 0x00, 0x08, 0x00, 
  0x00, 0x80, 0x9F, 0x07, 0x00, 0xE0, 0xE3, 0xC1, 0x0D, 0x00, 0xE0, 0x00, 
  0xC2, 0x00, 0x79, 0x00, 0x94, 0x80, 0x3F, 0x80, 0x9B, 0xE3, 0x07, 0x00, 
  0x00, 0x00, 0xC0, 0x0F, 0x0C, 0x00, 0x00, 0x87, 0x8F, 0x1B, 0x00, 0xE0, 
  0x1F, 0xE1, 0x00, 0x78, 0x00, 0x28, 0x01, 0xFD, 0x00, 0x37, 0x06, 0xFE, 
  0x00, 0x00, 0x00, 0xE0, 0x01, 0x00, 0x00, 0x00, 0x0C, 0x18, 0x13, 0x00, 
  0xC0, 0x1F, 0x60, 0x80, 0xBC, 0x01, 0x28, 0x01, 0xFD, 0x01, 0x6E, 0x1C, 
  0xF8, 0x0F, 0x00, 0x00, 0xE0, 0xF8, 0x87, 0xFF, 0x00, 0x00, 0x00, 0x23, 
  0x00, 0xC0, 0x03, 0x60, 0x00, 0xFE, 0x01, 0x28, 0x02, 0xF8, 0x07, 0xDE, 
  0x38, 0x00, 0x78, 0x00, 0x80, 0x71, 0xFE, 0xFF, 0xFF, 0x07, 0x00, 0x00, 
  0x02, 0x00, 0xC0, 0x06, 0x70, 0x40, 0xFE, 0x40, 0x40, 0x00, 0x78, 0x0F, 
  0xBC, 0x21, 0x00, 0xC0, 0x00, 0x80, 0x30, 0x87, 0xFF, 0x00, 0x0C, 0x20, 
  0x00, 0x02, 0x00, 0xC0, 0x1C, 0x38, 0x20, 0x3F, 0x80, 0x10, 0x04, 0x7C, 
  0x76, 0xF8, 0xC2, 0x00, 0x00, 0x01, 0x80, 0xB8, 0x13, 0x00, 0x00, 0x18, 
  0x00, 0x00, 0x06, 0x00, 0xC0, 0xFC, 0x3F, 0xA1, 0x1F, 0x00, 0x18, 0x08, 
  0x38, 0xCC, 0xF3, 0x85, 0x07, 0x00, 0x02, 0x80, };
