#define 0b29330c2f104275b8afa98b235684f9Ouvf3iviV70rML68_width 200
#define 0b29330c2f104275b8afa98b235684f9Ouvf3iviV70rML68_height 200
static char 0b29330c2f104275b8afa98b235684f9Ouvf3iviV70rML68_bits[] = {
  0x62, 0x22, 0x60, 0x86, 0x00, 0x19, 0xB1, 0x11, 0xA2, 0xB6, 0xD1, 0x30, 
  0x02, 0xC6, 0x4C, 0x30, 0x9E, 0x99, 0x29, 0x21, 0xCC, 0xC8, 0x48, 0x40, 
  0x20, 0x62, 0x22, 0x20, 0x86, 0x10, 0x19, 0xB1, 0x01, 0xA2, 0x14, 0xB1, 
  0x30, 0x02, 0xC6, 0x48, 0x20, 0x9E, 0x89, 0x29, 0x61, 0xCC, 0x98, 0x40, 
  0x42, 0x23, 0x62, 0x26, 0x24, 0x86, 0x18, 0x19, 0xB1, 0x11, 0xA2, 0x34, 
  0x91, 0x20, 0x02, 0xC6, 0x48, 0x20, 0x9E, 0x89, 0x29, 0x61, 0x8C, 0x98, 
  0x48, 0x42, 0x33, 0x63, 0x24, 0x24, 0x84, 0x00, 0x19, 0xB1, 0x10, 0xB2, 
  0x36, 0x93, 0x20, 0x02, 0xC6, 0x48, 0x00, 0x8E, 0x89, 0x29, 0x61, 0x8C, 
  0x98, 0x6D, 0x42, 0x30, 0x63, 0x24, 0x64, 0x8C, 0x18, 0x19, 0x93, 0x10, 
  0xA2, 0x36, 0xB3, 0x20, 0x02, 0xC6, 0xD8, 0x30, 0x8E, 0x89, 0x08, 0x41, 
  0x8C, 0x91, 0x6F, 0xC2, 0x20, 0x62, 0x64, 0x24, 0x8C, 0x19, 0x19, 0x91, 
  0x10, 0xA2, 0x37, 0xB3, 0x21, 0x02, 0xC6, 0xC8, 0x30, 0x8E, 0x88, 0x69, 
  0x43, 0x8C, 0x91, 0x4F, 0x42, 0x20, 0x62, 0x64, 0x64, 0x84, 0x10, 0x19, 
  0x93, 0x10, 0xA2, 0x37, 0x23, 0x61, 0x02, 0x86, 0xD8, 0x30, 0x8E, 0x88, 
  0x69, 0xC3, 0x88, 0x91, 0x4D, 0x42, 0x23, 0x62, 0x4C, 0x64, 0x84, 0x18, 
  0x19, 0xD3, 0x10, 0xE2, 0x35, 0x23, 0x63, 0x02, 0x86, 0xD8, 0x10, 0x86, 
  0x8C, 0x69, 0xC3, 0x88, 0x91, 0x4D, 0x43, 0x20, 0x42, 0x0C, 0x44, 0x84, 
  0x10, 0x19, 0xC3, 0x10, 0x73, 0x25, 0x62, 0x62, 0x02, 0x86, 0xD8, 0x10, 
  0x86, 0x8C, 0x59, 0xC3, 0x88, 0x11, 0x4F, 0x63, 0x23, 0x62, 0x4C, 0x40, 
  0x84, 0x18, 0x19, 0x42, 0x08, 0xF1, 0x6D, 0x62, 0x42, 0x00, 0x86, 0xD8, 
  0x10, 0x86, 0x8D, 0x79, 0xC3, 0x88, 0x11, 0x4F, 0x43, 0x23, 0x42, 0x4C, 
  0x44, 0x84, 0x18, 0x19, 0x4A, 0x08, 0xF1, 0x69, 0x46, 0x44, 0x06, 0x86, 
  0xCC, 0x10, 0x86, 0x8C, 0x70, 0xC3, 0x88, 0x31, 0x6B, 0x43, 0x22, 0x62, 
  0x4C, 0x44, 0x84, 0x09, 0x19, 0x4A, 0x88, 0x71, 0x4B, 0xC4, 0x4C, 0x06, 
  0x86, 0xC8, 0x10, 0x86, 0x8C, 0x70, 0xC1, 0x98, 0x11, 0x6B, 0x63, 0x22, 
  0x62, 0x4C, 0xC4, 0x8C, 0x09, 0x19, 0x6B, 0x8C, 0x71, 0xD9, 0xC4, 0x4C, 
  0x04, 0x86, 0xC8, 0x00, 0x86, 0x8C, 0x30, 0xC3, 0x18, 0x11, 0x6B, 0x63, 
  0x62, 0x42, 0x48, 0xC4, 0x8C, 0x09, 0x19, 0x6B, 0x84, 0x78, 0xB1, 0x89, 
  0x48, 0x04, 0x86, 0xC8, 0x10, 0x86, 0x8C, 0x30, 0xC3, 0x10, 0x01, 0x6B, 
  0x63, 0x62, 0x42, 0x48, 0x4C, 0x8C, 0x88, 0x19, 0x29, 0xC4, 0xB8, 0x61, 
  0x9B, 0x4D, 0x04, 0x86, 0xC8, 0x10, 0x86, 0x8C, 0x10, 0xC3, 0x10, 0x11, 
  0x4B, 0x43, 0x62, 0x42, 0x08, 0x4C, 0x8C, 0x89, 0x19, 0x2B, 0xC4, 0xB8, 
  0xE0, 0x12, 0x49, 0x04, 0x86, 0xC8, 0x10, 0x86, 0x8C, 0x30, 0xC2, 0x30, 
  0x31, 0x4B, 0x42, 0x40, 0x42, 0x48, 0x48, 0x8C, 0x89, 0x19, 0x23, 0x42, 
  0x58, 0x82, 0x26, 0x49, 0x04, 0x86, 0xC8, 0x10, 0x82, 0x84, 0x10, 0xC2, 
  0x30, 0x21, 0x4B, 0x42, 0x40, 0xC6, 0x58, 0x48, 0x8C, 0x89, 0x09, 0x33, 
  0x62, 0x4C, 0x0F, 0x65, 0xCB, 0x0C, 0x86, 0xC8, 0x10, 0xC2, 0x84, 0x30, 
  0xC2, 0x30, 0x03, 0x4B, 0xC2, 0x40, 0xC6, 0x50, 0x48, 0x8C, 0x99, 0x09, 
  0x3D, 0x62, 0x2C, 0x1F, 0x6D, 0x5A, 0x08, 0x86, 0xC8, 0x10, 0xC2, 0x84, 
  0x18, 0x86, 0x20, 0x23, 0x4B, 0xC2, 0xC2, 0xC6, 0xD0, 0x68, 0x8C, 0x91, 
  0x19, 0x3B, 0x22, 0xA6, 0x3B, 0x6F, 0xD2, 0x0C, 0x86, 0xC9, 0x10, 0xC2, 
  0x84, 0x18, 0x86, 0x20, 0x03, 0xCB, 0x82, 0xC2, 0xC6, 0xD0, 0x48, 0x8C, 
  0x99, 0x19, 0x1B, 0x22, 0x96, 0x33, 0x6F, 0xD6, 0x08, 0x86, 0xD9, 0x00, 
  0xC2, 0x84, 0x38, 0x86, 0x21, 0x03, 0x4B, 0x82, 0xC2, 0xC6, 0x30, 0x48, 
  0x88, 0x99, 0x19, 0x13, 0x23, 0x96, 0x37, 0x6B, 0xC6, 0x08, 0x86, 0x98, 
  0x00, 0xC3, 0x84, 0x78, 0x86, 0x21, 0x03, 0x53, 0x83, 0x86, 0xC6, 0xB0, 
  0x48, 0x88, 0x99, 0x09, 0x16, 0x33, 0x96, 0x23, 0x4F, 0x96, 0x08, 0x86, 
  0x99, 0x10, 0xC2, 0x84, 0x79, 0x80, 0x21, 0x23, 0xD6, 0x82, 0x80, 0xC6, 
  0xB0, 0x48, 0x88, 0x11, 0x19, 0x16, 0x33, 0x96, 0x63, 0x63, 0x96, 0x08, 
  0x86, 0x98, 0x30, 0xC2, 0x84, 0x18, 0x86, 0x21, 0x23, 0xCF, 0x86, 0x84, 
  0xC6, 0xA0, 0xC8, 0x98, 0x91, 0x19, 0x1E, 0x31, 0x9A, 0x2F, 0x63, 0x96, 
  0x08, 0x86, 0x90, 0x30, 0xC2, 0x84, 0x78, 0x86, 0x21, 0x23, 0xCB, 0x84, 
  0x05, 0xC6, 0xB0, 0xD8, 0x98, 0x91, 0x19, 0x1E, 0x31, 0x92, 0x37, 0x67, 
  0x86, 0x08, 0x86, 0x90, 0x11, 0xC2, 0x84, 0x68, 0x80, 0x61, 0x03, 0x9B, 
  0x84, 0x05, 0x86, 0xB0, 0xD8, 0x18, 0x91, 0x19, 0x32, 0x31, 0x16, 0x3F, 
  0x27, 0x86, 0x19, 0x86, 0x91, 0x11, 0xC2, 0x8C, 0x58, 0x80, 0x21, 0x03, 
  0x9B, 0x04, 0x0D, 0x86, 0xB0, 0xC0, 0x18, 0x19, 0x18, 0x34, 0x31, 0x16, 
  0x1F, 0x25, 0x96, 0x19, 0x86, 0x91, 0x11, 0xC2, 0x8C, 0x59, 0x86, 0x21, 
  0x03, 0x9B, 0x09, 0x09, 0x84, 0x90, 0x98, 0x18, 0x91, 0x09, 0x36, 0x31, 
  0x36, 0x86, 0x31, 0xB6, 0x19, 0x86, 0x91, 0x11, 0xC2, 0x84, 0xD8, 0x82, 
  0x21, 0x02, 0x1B, 0x09, 0x09, 0x84, 0x10, 0x98, 0x38, 0x81, 0x09, 0x36, 
  0x31, 0x2E, 0x80, 0x10, 0xB6, 0x11, 0x86, 0x90, 0x11, 0xC2, 0x84, 0x58, 
  0x82, 0x21, 0x02, 0x1B, 0x09, 0x13, 0x85, 0x90, 0x98, 0x18, 0x91, 0x09, 
  0x27, 0x31, 0x6C, 0xC0, 0x10, 0xA6, 0x01, 0x86, 0x90, 0x10, 0x42, 0x84, 
  0x51, 0x02, 0x21, 0x02, 0x1B, 0x09, 0x33, 0x85, 0xB0, 0x90, 0x38, 0x99, 
  0x09, 0x26, 0x23, 0xDC, 0xC0, 0x18, 0xA6, 0x11, 0x86, 0x90, 0x11, 0xC6, 
  0x86, 0xD1, 0x00, 0x31, 0x02, 0x1B, 0x0B, 0x22, 0x85, 0xB0, 0x90, 0xB8, 
  0x99, 0x09, 0x26, 0x22, 0x98, 0x41, 0x08, 0x26, 0x11, 0xC6, 0x98, 0x01, 
  0xC6, 0x86, 0xD0, 0x02, 0x31, 0x22, 0x3B, 0x0A, 0x66, 0x84, 0xB0, 0x99, 
  0xB8, 0x99, 0x09, 0x66, 0x62, 0x18, 0x61, 0x09, 0x22, 0x11, 0xC6, 0x98, 
  0x10, 0xC6, 0x86, 0x98, 0x06, 0x31, 0x02, 0x2B, 0x06, 0x44, 0x84, 0xB0, 
  0x91, 0xB8, 0x89, 0x09, 0x66, 0x62, 0x38, 0x63, 0x09, 0x22, 0x11, 0x46, 
  0x98, 0x10, 0xC6, 0x86, 0x98, 0x06, 0x11, 0x02, 0x6A, 0x16, 0x44, 0x84, 
  0x30, 0x91, 0x38, 0x09, 0x19, 0x66, 0x42, 0x30, 0x62, 0x0D, 0x32, 0x11, 
  0xC6, 0x98, 0x10, 0xC6, 0x86, 0x99, 0x86, 0x11, 0x22, 0x5A, 0x14, 0x88, 
  0x85, 0xA0, 0x91, 0x39, 0x19, 0x19, 0x46, 0x42, 0x70, 0x22, 0x0D, 0x12, 
  0x13, 0xC6, 0x88, 0x10, 0xC6, 0x86, 0x99, 0x86, 0x10, 0x22, 0x5A, 0x24, 
  0x88, 0x85, 0x20, 0x91, 0x39, 0x1B, 0x19, 0xC6, 0xC6, 0xB0, 0x26, 0x0D, 
  0x12, 0x11, 0xC6, 0x88, 0x11, 0xC6, 0x86, 0x98, 0x80, 0x10, 0x32, 0x56, 
  0x2C, 0x10, 0x85, 0x20, 0xB1, 0x39, 0x1B, 0x19, 0xC6, 0x84, 0x20, 0x26, 
  0x05, 0x13, 0x11, 0xC6, 0x88, 0x10, 0xC6, 0x86, 0x98, 0xC4, 0x18, 0x22, 
  0x96, 0x68, 0x20, 0x85, 0x20, 0xB1, 0x39, 0x11, 0x11, 0x86, 0x84, 0x61, 
  0x26, 0x04, 0x02, 0x33, 0xC6, 0x88, 0x10, 0xC6, 0x86, 0x98, 0xC5, 0x08, 
  0x06, 0xB4, 0x48, 0x60, 0x85, 0x20, 0x31, 0x39, 0x1B, 0x11, 0xC6, 0x04, 
  0xE1, 0x26, 0x04, 0x13, 0x33, 0xC6, 0x88, 0x10, 0xC4, 0x86, 0x98, 0xC4, 
  0x08, 0x06, 0xAC, 0xD9, 0x40, 0x85, 0x20, 0x31, 0x39, 0x13, 0x11, 0x86, 
  0x0C, 0xE3, 0x26, 0x04, 0x1B, 0x13, 0xC6, 0x98, 0x10, 0xC4, 0x86, 0x99, 
  0xC6, 0x08, 0x06, 0x2C, 0x91, 0x40, 0x85, 0x21, 0x31, 0x39, 0x13, 0x11, 
  0x86, 0x09, 0xC3, 0xA5, 0x04, 0x13, 0x13, 0x46, 0x98, 0x10, 0xC4, 0x82, 
  0x98, 0x42, 0x0C, 0x26, 0x68, 0xB2, 0xC1, 0x8D, 0x61, 0x31, 0x39, 0x13, 
  0x11, 0x0E, 0x19, 0xC2, 0x35, 0x06, 0x33, 0x13, 0x44, 0x98, 0x10, 0x84, 
  0x02, 0x48, 0xC2, 0x04, 0x47, 0x58, 0x32, 0x81, 0x8D, 0x61, 0x31, 0x3B, 
  0x13, 0x19, 0x0E, 0x19, 0xC6, 0xB6, 0x02, 0x23, 0x13, 0x44, 0x98, 0x18, 
  0x84, 0x42, 0x48, 0x42, 0x84, 0xC3, 0x50, 0x26, 0x81, 0x85, 0x61, 0x11, 
  0x3B, 0x1B, 0x11, 0x0A, 0x13, 0xC6, 0xB7, 0x02, 0x23, 0x12, 0x44, 0xD8, 
  0x08, 0x84, 0x43, 0x4C, 0x62, 0x86, 0x81, 0xD1, 0xA4, 0x01, 0x8D, 0x61, 
  0x11, 0x2B, 0x1A, 0x11, 0x1A, 0x13, 0x86, 0x37, 0x02, 0x23, 0x32, 0x66, 
  0xD8, 0x00, 0x84, 0x43, 0x44, 0x62, 0xC6, 0x00, 0xB1, 0x64, 0x02, 0x0D, 
  0x61, 0x31, 0x7B, 0x1A, 0x13, 0x1A, 0x33, 0x84, 0x26, 0x02, 0x21, 0x12, 
  0x64, 0xD0, 0x10, 0x8C, 0x63, 0x44, 0x22, 0x42, 0x7C, 0xA2, 0x4C, 0x06, 
  0x0D, 0x61, 0x33, 0x7B, 0x12, 0x13, 0x12, 0x32, 0x8C, 0xA7, 0x03, 0x31, 
  0x12, 0x44, 0xD0, 0x18, 0x8C, 0x23, 0x44, 0x23, 0x62, 0xFE, 0xE6, 0xC8, 
  0x06, 0x0D, 0x41, 0x33, 0x6B, 0x1A, 0x13, 0x12, 0x32, 0x8C, 0xA7, 0x02, 
  0x33, 0x36, 0x44, 0xD0, 0x10, 0x84, 0x23, 0x64, 0x31, 0x23, 0xFF, 0x6D, 
  0x89, 0x04, 0x09, 0x61, 0x33, 0x7B, 0x1A, 0x32, 0x12, 0x26, 0x88, 0xE7, 
  0x02, 0x33, 0x36, 0xC6, 0x50, 0x10, 0x84, 0x23, 0x26, 0x11, 0xB1, 0xFF, 
  0xC9, 0x99, 0x04, 0x09, 0x61, 0x20, 0x7B, 0x12, 0x30, 0x12, 0x26, 0x88, 
  0x67, 0x02, 0x33, 0x34, 0x46, 0x58, 0x10, 0x84, 0x33, 0xA6, 0x11, 0xD1, 
  0x9E, 0xDB, 0x91, 0x0C, 0x0B, 0x41, 0x23, 0x7A, 0x12, 0x32, 0x36, 0x64, 
  0x88, 0x67, 0x04, 0x21, 0x14, 0x46, 0xD8, 0x10, 0x84, 0x33, 0xA2, 0x10, 
  0x61, 0x33, 0x93, 0x93, 0x0C, 0x0B, 0x41, 0x22, 0x72, 0x16, 0x32, 0x32, 
  0x64, 0x88, 0x67, 0x04, 0x21, 0x24, 0x46, 0xD8, 0x30, 0x84, 0x13, 0xA2, 
  0x10, 0x61, 0x67, 0xB7, 0x33, 0x19, 0x0B, 0x43, 0x22, 0x72, 0x16, 0x32, 
  0x36, 0x44, 0x88, 0x67, 0x04, 0x31, 0x24, 0xC6, 0xD8, 0x30, 0x84, 0x13, 
  0xA2, 0x98, 0xE9, 0x6F, 0xA6, 0x27, 0x11, 0x0B, 0x43, 0x22, 0x72, 0x16, 
  0x32, 0x36, 0x4E, 0x98, 0x4F, 0x04, 0x11, 0x24, 0x46, 0xD8, 0x30, 0x86, 
  0x1B, 0x83, 0x98, 0xA8, 0xBD, 0x06, 0x27, 0x33, 0x0B, 0x43, 0x22, 0x72, 
  0x16, 0x32, 0x36, 0xCC, 0x98, 0xC6, 0x04, 0x31, 0x24, 0x42, 0x98, 0x30, 
  0x86, 0x1B, 0x63, 0x88, 0xA8, 0xFD, 0x07, 0x67, 0x23, 0x0B, 0x43, 0x22, 
  0x72, 0x14, 0x32, 0x26, 0xCC, 0x98, 0xC5, 0x04, 0x31, 0x24, 0x62, 0x98, 
  0x30, 0x84, 0x1B, 0xF3, 0x98, 0xA8, 0x75, 0x06, 0x67, 0x22, 0x0B, 0x42, 
  0x62, 0x76, 0x14, 0x26, 0x26, 0xC8, 0x90, 0xC7, 0x04, 0x11, 0x24, 0x62, 
  0x98, 0x30, 0x84, 0x0B, 0x31, 0x98, 0xA8, 0x79, 0x06, 0x4B, 0x62, 0x0A, 
  0x42, 0x62, 0x76, 0x14, 0x36, 0x26, 0x98, 0x90, 0xC7, 0x84, 0x51, 0x24, 
  0x62, 0xD8, 0x30, 0x84, 0x0F, 0x31, 0xC8, 0x28, 0xF9, 0x22, 0xCA, 0x42, 
  0x0E, 0x42, 0x62, 0x76, 0x14, 0x36, 0x66, 0x98, 0x91, 0xC7, 0x84, 0x41, 
  0x24, 0x22, 0xC8, 0x30, 0x8C, 0x0F, 0x71, 0x88, 0x68, 0xD3, 0x36, 0xCA, 
  0x42, 0x0E, 0xC2, 0x42, 0x56, 0x14, 0x26, 0x66, 0x98, 0x11, 0xC7, 0x84, 
  0xD0, 0x05, 0x26, 0xC8, 0x30, 0x84, 0x07, 0x61, 0x88, 0x68, 0x9F, 0x13, 
  0x8A, 0x46, 0x1E, 0xC2, 0x42, 0x16, 0x14, 0x24, 0x62, 0x88, 0x11, 0xC6, 
  0x84, 0xD1, 0x25, 0x66, 0xC8, 0x30, 0x84, 0x0F, 0x71, 0x88, 0xC8, 0x7E, 
  0x13, 0x9A, 0xC6, 0x1E, 0xC2, 0x42, 0xB6, 0x0C, 0x24, 0x66, 0x98, 0x91, 
  0xC7, 0x84, 0x91, 0x25, 0x66, 0xCC, 0x30, 0x84, 0x1B, 0x71, 0x98, 0xD9, 
  0x84, 0x1B, 0x93, 0x40, 0x1A, 0x82, 0x42, 0xB6, 0x0C, 0x20, 0x62, 0x98, 
  0x91, 0xCF, 0x84, 0x90, 0x24, 0x66, 0x8C, 0x30, 0x84, 0x1B, 0x51, 0x98, 
  0x99, 0xF1, 0x19, 0x93, 0x46, 0x1A, 0x82, 0x40, 0x96, 0x0C, 0x24, 0xF6, 
  0x98, 0x99, 0xCD, 0x84, 0xF0, 0x6D, 0x66, 0x8C, 0x30, 0x84, 0x0B, 0x53, 
  0x18, 0x11, 0xFF, 0x08, 0x91, 0x46, 0x1B, 0x86, 0x42, 0xB2, 0x0C, 0x24, 
  0xF6, 0x98, 0x99, 0x8F, 0x84, 0x70, 0x6D, 0x62, 0x8C, 0x30, 0x84, 0x0A, 
  0x73, 0x10, 0x33, 0x3E, 0x0C, 0x81, 0x46, 0x13, 0x82, 0x42, 0xB6, 0x0C, 
  0x24, 0xB6, 0x9C, 0x19, 0x8F, 0x84, 0x30, 0x2D, 0x62, 0x8C, 0x30, 0x84, 
  0x1B, 0xB2, 0x10, 0x62, 0x00, 0x86, 0xC1, 0x62, 0x12, 0x86, 0x42, 0xB6, 
  0x0C, 0x24, 0xB6, 0x1C, 0x19, 0x8D, 0x84, 0x50, 0x6D, 0x66, 0x8C, 0x30, 
  0x84, 0x0B, 0x92, 0x30, 0xC6, 0x00, 0x83, 0x60, 0x22, 0x12, 0x86, 0x46, 
  0xB6, 0x0C, 0x24, 0xB6, 0x9C, 0x19, 0x8D, 0x84, 0xD1, 0x6D, 0x66, 0x88, 
  0x30, 0x84, 0x1A, 0x92, 0x20, 0x86, 0x81, 0xC1, 0x34, 0x22, 0x32, 0x86, 
  0x44, 0xA6, 0x3C, 0x24, 0xB6, 0x9C, 0x19, 0x8F, 0x84, 0x51, 0x6D, 0x66, 
  0x88, 0x30, 0x84, 0x1A, 0xA2, 0x60, 0x0C, 0x8F, 0xC0, 0x12, 0x12, 0x36, 
  0x86, 0xC0, 0xB6, 0x18, 0x24, 0xB4, 0x98, 0x18, 0x8F, 0x84, 0x71, 0x49, 
  0x46, 0x88, 0x30, 0x86, 0x14, 0x66, 0x41, 0x08, 0xCC, 0x60, 0x1A, 0x1B, 
  0x26, 0x84, 0xC0, 0xB6, 0x28, 0x24, 0xB4, 0x99, 0x08, 0x8F, 0x0C, 0x71, 
  0x6D, 0x46, 0x88, 0x30, 0x86, 0x34, 0x46, 0xC1, 0x18, 0x4C, 0x60, 0x19, 
  0x09, 0x26, 0x84, 0xC4, 0xA4, 0x38, 0x64, 0xB4, 0xC9, 0x08, 0x8B, 0x04, 
  0x71, 0x6D, 0x46, 0x88, 0x30, 0x86, 0x36, 0xC4, 0x82, 0x19, 0x08, 0xB0, 
  0x99, 0x09, 0x26, 0x84, 0xC1, 0xA4, 0x38, 0x24, 0xB4, 0xCD, 0x08, 0x8B, 
  0x04, 0x61, 0x4D, 0x46, 0x98, 0x30, 0x86, 0x35, 0x8C, 0x82, 0x31, 0x08, 
  0x90, 0x99, 0x0D, 0x24, 0x84, 0xC5, 0xA4, 0x28, 0x64, 0x94, 0xCD, 0x08, 
  0x8B, 0x85, 0x71, 0x4D, 0x46, 0x98, 0x30, 0x86, 0x25, 0x88, 0x01, 0x31, 
  0x48, 0x90, 0x98, 0x0D, 0x24, 0x84, 0x85, 0xA4, 0x18, 0x64, 0x94, 0x4D, 
  0x0C, 0x8F, 0x8D, 0x71, 0x49, 0x46, 0x98, 0x30, 0x04, 0x65, 0x18, 0x03, 
  0x21, 0x48, 0x90, 0x98, 0x0D, 0x24, 0x84, 0x85, 0xA4, 0x58, 0x64, 0x94, 
  0xCD, 0x0C, 0x8F, 0x05, 0x61, 0x49, 0xC6, 0x98, 0x20, 0x04, 0x4D, 0x18, 
  0x03, 0x63, 0x08, 0xB0, 0x98, 0x09, 0x24, 0x84, 0x05, 0xA4, 0x18, 0x64, 
  0xB4, 0x4D, 0x8C, 0x8F, 0x05, 0x61, 0x4B, 0xC6, 0x98, 0x20, 0x04, 0xCD, 
  0x10, 0x0A, 0x63, 0x08, 0xB0, 0x99, 0x0C, 0x26, 0x04, 0x85, 0xA5, 0x38, 
  0x64, 0xB4, 0x4D, 0x8C, 0x8B, 0x05, 0x61, 0x4A, 0xC6, 0x98, 0x20, 0x04, 
  0x89, 0x11, 0x1A, 0x42, 0x48, 0x90, 0x91, 0x0C, 0x66, 0x04, 0x8D, 0x85, 
  0x78, 0x64, 0x84, 0x44, 0x8C, 0x89, 0x04, 0x63, 0x4A, 0xC4, 0x98, 0x20, 
  0x04, 0x09, 0x31, 0x12, 0x42, 0x48, 0x90, 0xB1, 0x0C, 0x66, 0x04, 0x8D, 
  0xA5, 0x58, 0x04, 0x84, 0x44, 0x8C, 0x89, 0x05, 0x63, 0xDA, 0xC4, 0x98, 
  0x20, 0x84, 0x19, 0x23, 0x36, 0xC2, 0x08, 0x90, 0xB1, 0x0D, 0x66, 0x0C, 
  0x89, 0xB5, 0x58, 0x64, 0xB4, 0x44, 0x8C, 0x89, 0x05, 0x61, 0x5A, 0xC4, 
  0x98, 0x20, 0x84, 0x19, 0x22, 0x26, 0xC6, 0x88, 0x90, 0xA1, 0x0C, 0x66, 
  0x0C, 0x8D, 0xB5, 0x58, 0x64, 0xFC, 0x44, 0x8C, 0x89, 0x05, 0x63, 0x5A, 
  0xC4, 0x98, 0x20, 0x84, 0x39, 0x66, 0x44, 0xC6, 0x88, 0x10, 0xA1, 0x0C, 
  0x46, 0x0C, 0x83, 0xB5, 0x59, 0x44, 0xEC, 0x46, 0x84, 0xCD, 0x0D, 0x63, 
  0xDA, 0xC4, 0x90, 0x20, 0x04, 0x39, 0x64, 0x44, 0x86, 0x88, 0x10, 0xA1, 
  0x0D, 0x42, 0x0C, 0x8B, 0xB5, 0x59, 0x44, 0x6C, 0x46, 0xC4, 0xC9, 0x0D, 
  0x63, 0xDA, 0x84, 0x90, 0x30, 0x04, 0x19, 0x6C, 0xCC, 0x86, 0x08, 0x30, 
  0xB1, 0x04, 0x46, 0x0C, 0x8B, 0xB5, 0x59, 0x44, 0x48, 0x66, 0xC4, 0x4D, 
  0x08, 0x63, 0xD6, 0x84, 0x90, 0x20, 0x04, 0x59, 0x68, 0xCC, 0x86, 0x08, 
  0x30, 0xA1, 0x04, 0x42, 0x0C, 0x0B, 0xB5, 0x59, 0x44, 0x68, 0x66, 0xC4, 
  0x6D, 0x08, 0xC2, 0xD6, 0x84, 0x90, 0x20, 0x04, 0xD9, 0xE8, 0x88, 0x84, 
  0x88, 0x30, 0xE1, 0x0C, 0x42, 0x0C, 0x0B, 0x35, 0xD9, 0x44, 0x68, 0x66, 
  0xC4, 0x2D, 0x09, 0xE2, 0x96, 0x84, 0x90, 0x20, 0x0C, 0xC9, 0x98, 0x98, 
  0x84, 0x89, 0x20, 0xE1, 0x08, 0xC2, 0x0C, 0x0B, 0x37, 0xD9, 0x44, 0x48, 
  0x26, 0xC4, 0x2C, 0x08, 0xE2, 0x96, 0x84, 0x90, 0x20, 0x0C, 0xC9, 0x99, 
  0x91, 0x8D, 0x89, 0x20, 0xE1, 0x08, 0xC2, 0x08, 0x0B, 0x37, 0x19, 0x04, 
  0x08, 0x26, 0xC4, 0x2C, 0x08, 0xE2, 0x96, 0x84, 0x90, 0x20, 0x0C, 0xD9, 
  0x91, 0x11, 0x8C, 0x19, 0x60, 0xE1, 0x08, 0xC2, 0x08, 0x0B, 0x36, 0x99, 
  0xC4, 0x08, 0x26, 0xC6, 0x2C, 0x08, 0xE2, 0x92, 0x8C, 0x91, 0x20, 0x0C, 
  0x49, 0x93, 0xB1, 0x8D, 0x19, 0x61, 0xE1, 0x08, 0xC6, 0x08, 0x0B, 0x37, 
  0x91, 0xC4, 0x08, 0x26, 0xC6, 0x24, 0x0B, 0xE2, 0xB6, 0x8C, 0x91, 0x20, 
  0x0C, 0x59, 0x13, 0xB1, 0x09, 0x19, 0x61, 0xE1, 0x09, 0xC6, 0x08, 0x1B, 
  0x17, 0xB3, 0x04, 0x08, 0x26, 0xC6, 0x24, 0x0B, 0x66, 0x92, 0x84, 0x91, 
  0x21, 0x0C, 0x59, 0x13, 0x21, 0x09, 0x19, 0x40, 0xA1, 0x09, 0xC4, 0x08, 
  0x1B, 0x17, 0xB3, 0xC4, 0x08, 0x26, 0xC6, 0x26, 0x08, 0x66, 0x92, 0x84, 
  0xB1, 0x21, 0x0C, 0x69, 0x33, 0x23, 0x19, 0x19, 0x41, 0xA1, 0x09, 0xC6, 
  0x08, 0x13, 0x15, 0xB3, 0xC4, 0x08, 0x26, 0xE6, 0x26, 0x08, 0xA4, 0x92, 
  0x85, 0x91, 0x31, 0x0C, 0x69, 0x33, 0x23, 0x19, 0x11, 0x41, 0x21, 0x19, 
  0xC6, 0x08, 0x13, 0x15, 0xB3, 0xC4, 0x08, 0x22, 0xE6, 0x36, 0x0B, 0x84, 
  0x90, 0x85, 0x91, 0x31, 0x0C, 0x59, 0x33, 0xA3, 0x19, 0x11, 0x41, 0x23, 
  0x19, 0xC6, 0x18, 0x12, 0x15, 0xB3, 0xC5, 0x08, 0x22, 0xE2, 0x32, 0x08, 
  0xA4, 0x92, 0x85, 0x91, 0x31, 0x0C, 0x69, 0x33, 0x63, 0x11, 0x13, 0x43, 
  0x62, 0x19, 0xC6, 0x18, 0x12, 0x15, 0x33, 0x85, 0x08, 0x22, 0xE6, 0x32, 
  0x08, 0xA4, 0x9A, 0x85, 0x91, 0x30, 0x0C, 0x69, 0x32, 0x42, 0x11, 0x33, 
  0x41, 0x62, 0x19, 0x86, 0x08, 0x32, 0x35, 0x33, 0x84, 0x08, 0x22, 0x66, 
  0x32, 0x08, 0xA4, 0x1A, 0x85, 0x90, 0x30, 0x0C, 0x69, 0x32, 0x02, 0x11, 
  0x33, 0x40, 0x62, 0x1B, 0x86, 0x18, 0x32, 0x35, 0x33, 0x83, 0x08, 0x23, 
  0x66, 0x23, 0x1B, 0xA4, 0x11, 0x8D, 0x90, 0x30, 0x0C, 0x69, 0x12, 0x46, 
  0x31, 0x32, 0x40, 0x62, 0x19, 0x86, 0x18, 0x22, 0x35, 0x33, 0x82, 0x08, 
  0x23, 0x76, 0x22, 0x1B, 0xA6, 0x12, 0x8D, 0x90, 0x20, 0x0C, 0x69, 0x32, 
  0x46, 0x31, 0x32, 0x42, 0x62, 0x1B, 0x84, 0x18, 0x22, 0x35, 0x23, 0x82, 
  0x08, 0x23, 0x66, 0x32, 0x03, 0xA6, 0x17, 0x8D, 0x90, 0x20, 0x0C, 0x69, 
  0x32, 0x44, 0x31, 0x32, 0x40, 0x66, 0x0B, 0x84, 0x18, 0x22, 0x35, 0x23, 
  0x86, 0x08, 0x23, 0x66, 0x32, 0x12, 0x26, 0x16, 0x8D, 0x90, 0x20, 0x0C, 
  0xE9, 0x32, 0x44, 0x21, 0x32, 0xC0, 0x66, 0x0B, 0x8C, 0x18, 0x22, 0x35, 
  0x22, 0x82, 0x08, 0x23, 0xE6, 0x32, 0x12, 0xA6, 0x10, 0x8D, 0x90, 0x20, 
  0x8C, 0x69, 0x32, 0x46, 0x21, 0x32, 0xC0, 0x66, 0x0A, 0x8C, 0x18, 0x26, 
  0x35, 0x22, 0x83, 0x08, 0x23, 0xE6, 0x32, 0x12, 0xA6, 0x12, 0x8D, 0x90, 
  0x21, 0x8C, 0xB9, 0x32, 0x06, 0x21, 0x22, 0x82, 0x64, 0x0A, 0x8C, 0x10, 
  0x26, 0x2C, 0x22, 0x82, 0x18, 0x33, 0xE6, 0x32, 0x12, 0x26, 0x12, 0x8D, 
  0xB1, 0x21, 0x08, 0xF9, 0x32, 0x46, 0x61, 0x22, 0xC0, 0x64, 0x0A, 0x8C, 
  0x11, 0x26, 0x2B, 0x26, 0x84, 0x18, 0x33, 0xE6, 0x32, 0x12, 0x66, 0x12, 
  0x8D, 0xB1, 0x20, 0x08, 0xC9, 0x36, 0x22, 0x61, 0x26, 0xC0, 0x64, 0x0A, 
  0x88, 0x11, 0x26, 0x2B, 0x26, 0x86, 0x18, 0x33, 0x76, 0x32, 0x12, 0xE6, 
  0x11, 0x8D, 0xB1, 0x20, 0x08, 0xC9, 0x22, 0xA2, 0x61, 0x26, 0x80, 0x64, 
  0x0E, 0x88, 0x31, 0x24, 0x3B, 0x26, 0x8E, 0x10, 0x33, 0x72, 0x36, 0x12, 
  0x86, 0x15, 0x8D, 0xB1, 0x20, 0x0C, 0xEB, 0x36, 0x62, 0x20, 0x24, 0x80, 
  0x6C, 0x0E, 0x08, 0x31, 0x26, 0x3B, 0x26, 0x8E, 0x10, 0x32, 0x32, 0x36, 
  0x16, 0x86, 0x14, 0x89, 0xB1, 0x20, 0x08, 0xE9, 0x36, 0x62, 0x20, 0x24, 
  0x82, 0x48, 0x0E, 0x08, 0x21, 0x26, 0x3A, 0x66, 0x86, 0x10, 0x33, 0x72, 
  0x26, 0x34, 0x06, 0x14, 0x8D, 0xB1, 0x60, 0x08, 0xED, 0x36, 0x62, 0x20, 
  0x34, 0x82, 0x48, 0x0E, 0x0C, 0x23, 0x26, 0x2A, 0x66, 0x86, 0x10, 0x23, 
  0x72, 0x26, 0x24, 0x46, 0x14, 0x89, 0xB1, 0x60, 0x08, 0xED, 0x26, 0xC2, 
  0x60, 0x2C, 0x82, 0x49, 0x0B, 0x0C, 0x33, 0x06, 0x2A, 0x66, 0x8C, 0x10, 
  0x23, 0x32, 0x26, 0x24, 0x46, 0x10, 0x8D, 0x91, 0x61, 0x08, 0xED, 0x26, 
  0xC2, 0x60, 0x2C, 0x82, 0x49, 0x0B, 0x0C, 0x32, 0x36, 0x3A, 0x64, 0x8E, 
  0x10, 0x21, 0x62, 0x24, 0x2C, 0x46, 0x15, 0x8D, 0x91, 0x41, 0x08, 0xED, 
  0x26, 0xC2, 0x60, 0x2C, 0x00, 0x59, 0x09, 0x04, 0x32, 0x34, 0x3A, 0x64, 
  0x8E, 0x10, 0x21, 0x63, 0x24, 0x2C, 0x46, 0x15, 0x89, 0x91, 0x61, 0x18, 
  0xED, 0x66, 0xC2, 0x60, 0x2C, 0x00, 0x41, 0x0A, 0x04, 0x23, 0x34, 0x3A, 
  0x6C, 0x08, 0x10, 0x23, 0x63, 0x6C, 0x28, 0x44, 0x15, 0x89, 0x91, 0x61, 
  0x18, 0xED, 0x66, 0xC2, 0x60, 0x28, 0x06, 0x41, 0x0B, 0x04, 0x23, 0x34, 
  0x32, 0x6C, 0x82, 0x10, 0x23, 0x62, 0x6C, 0x28, 0x44, 0x15, 0x89, 0x11, 
  0x41, 0x18, 0x6D, 0x64, 0x82, 0x61, 0x68, 0x04, 0xD9, 0x09, 0x04, 0x23, 
  0x16, 0x32, 0x6C, 0x80, 0x11, 0x23, 0xE2, 0x4C, 0x28, 0x44, 0x14, 0x89, 
  0x11, 0x61, 0x18, 0x6D, 0x64, 0xC2, 0x61, 0x68, 0x04, 0xD3, 0x09, 0x04, 
  0x33, 0x36, 0x32, 0x64, 0x98, 0x11, 0x23, 0xE2, 0x4C, 0x68, 0x44, 0x15, 
  0x89, 0x11, 0x61, 0x98, 0x6D, 0x24, 0x42, 0x61, 0x48, 0x0C, 0xC3, 0x09, 
  0x04, 0x13, 0x36, 0x32, 0x64, 0x98, 0x11, 0x23, 0xE2, 0xCC, 0x40, 0x46, 
  0x16, 0x89, 0x31, 0x61, 0x98, 0xED, 0x24, 0x42, 0x61, 0xC8, 0x08, 0xD3, 
  0x19, 0x04, 0x13, 0x06, 0x32, 0x44, 0x90, 0x31, 0x23, 0xE3, 0xC8, 0x58, 
  0x46, 0x16, 0x89, 0x31, 0x41, 0x90, 0xED, 0x24, 0x42, 0x61, 0xC8, 0x18, 
  0xD3, 0x1B, 0x04, 0x31, 0x36, 0x32, 0x44, 0x9C, 0x10, 0x23, 0xE2, 0xC8, 
  0x40, 0x46, 0x16, 0x89, 0x11, 0x41, 0x90, 0xEC, 0x24, 0x42, 0x61, 0x88, 
  0x10, 0xD3, 0x12, 0x04, 0x31, 0x36, 0x22, 0x44, 0x98, 0x10, 0x23, 0xC3, 
  0xC8, 0x00, 0x42, 0x10, 0x89, 0x11, 0x41, 0x90, 0xEC, 0x24, 0x42, 0x29, 
  0x88, 0x10, 0x92, 0x12, 0x04, 0x31, 0x36, 0x62, 0xCC, 0x90, 0x10, 0x22, 
  0xE3, 0xC8, 0x10, 0x46, 0x10, 0x89, 0x11, 0x41, 0x90, 0x8C, 0x24, 0xC2, 
  0x29, 0x88, 0x11, 0xD2, 0x12, 0x04, 0x31, 0x36, 0x60, 0xCC, 0x04, 0x10, 
  0x22, 0xE2, 0xD9, 0x10, 0x44, 0x10, 0x89, 0x11, 0x61, 0x90, 0xAC, 0x34, 
  0xC2, 0x69, 0x88, 0x11, 0xD2, 0x12, 0x0C, 0x31, 0x36, 0x26, 0xCC, 0x04, 
  0x10, 0x22, 0xE2, 0x89, 0x50, 0xC4, 0x10, 0x0C, 0x31, 0x61, 0xB0, 0xEC, 
  0x36, 0x42, 0x6D, 0x08, 0x21, 0xD2, 0x32, 0x0C, 0x31, 0x36, 0x66, 0x8C, 
  0x04, 0x11, 0x63, 0xE2, 0x99, 0x40, 0x44, 0x10, 0x0D, 0x31, 0x61, 0xB0, 
  0xEC, 0x34, 0xE6, 0x4D, 0x08, 0x21, 0xD6, 0x32, 0x0C, 0x33, 0x26, 0x62, 
  0xCC, 0x24, 0x11, 0x23, 0x62, 0x99, 0x41, 0xCC, 0x10, 0x0D, 0x33, 0x61, 
  0xB0, 0xCC, 0x24, 0x66, 0x4D, 0x08, 0x23, 0x96, 0x32, 0x0C, 0x13, 0x22, 
  0x60, 0xC8, 0x2C, 0x11, 0x63, 0x62, 0x99, 0x51, 0xCC, 0x18, 0x09, 0x13, 
  0x63, 0xB0, 0xCC, 0x24, 0x86, 0x4D, 0x18, 0x22, 0x94, 0x32, 0x0C, 0x13, 
  0x22, 0x60, 0xC8, 0x2C, 0x11, 0x22, 0x62, 0x19, 0x51, 0xCC, 0x18, 0x0B, 
  0x13, 0x63, 0x90, 0xCC, 0x24, 0x84, 0x4D, 0x18, 0x02, 0x96, 0x32, 0x0C, 
  0x12, 0x22, 0x66, 0xC8, 0x2C, 0x11, 0x22, 0x62, 0x19, 0x53, 0xCC, 0x10, 
  0x0B, 0x13, 0x43, 0x90, 0xEC, 0x25, 0x84, 0x4D, 0x18, 0x26, 0x94, 0x22, 
  0x0C, 0x13, 0x23, 0x66, 0xC8, 0x2C, 0x11, 0x22, 0x62, 0x11, 0x13, 0xC8, 
  0x10, 0x0B, 0x11, 0x63, 0x98, 0xCC, 0x25, 0xE4, 0x54, 0x1A, 0x26, 0x94, 
  0x22, 0x0C, 0x13, 0x23, 0x60, 0x88, 0x2C, 0x31, 0x22, 0x62, 0x11, 0xD3, 
  0xC8, 0x10, 0x0B, 0x11, 0x63, 0x98, 0x4C, 0x65, 0xE4, 0x54, 0x12, 0x66, 
  0x94, 0x22, 0x0C, 0x1B, 0x23, 0x40, 0x88, 0x28, 0x39, 0x22, 0x62, 0x13, 
  0x83, 0x88, 0x18, 0x0B, 0x11, 0x43, 0x98, 0x4C, 0xE5, 0xCC, 0x54, 0x12, 
  0x40, 0x8C, 0x23, 0x04, 0x1B, 0x33, 0x44, 0x88, 0x08, 0x30, 0x22, 0x62, 
  0x13, 0x83, 0x98, 0x18, 0x0A, 0x11, 0x43, 0x98, 0x4C, 0xED, 0xCC, 0xDC, 
  0x16, 0x44, 0xAC, 0x63, 0x04, 0x19, 0x33, 0x44, 0x88, 0x68, 0x33, 0x22, 
  0x62, 0x32, 0x83, 0x98, 0x10, 0x1A, 0x11, 0x43, 0x88, 0x4C, 0x49, 0xEC, 
  0xD4, 0x16, 0x46, 0xAC, 0x27, 0x04, 0x19, 0x33, 0xC0, 0x98, 0x48, 0x22, 
  0x22, 0x62, 0x32, 0xA3, 0x98, 0x10, 0x1A, 0x11, 0x41, 0xC8, 0x4C, 0xC9, 
  0xCC, 0xD4, 0x36, 0xC6, 0xBC, 0x25, 0x06, 0x09, 0x11, 0xC0, 0x98, 0x08, 
  0x22, 0x22, 0x66, 0x32, 0xA3, 0x90, 0x10, 0x1A, 0x33, 0x43, 0x08, 0x4C, 
  0x4B, 0xC8, 0xD6, 0x36, 0xC4, 0xA8, 0x65, 0x06, 0x0D, 0x11, 0xC4, 0x98, 
  0x08, 0x62, 0x22, 0x62, 0x32, 0xA3, 0x90, 0x10, 0x1B, 0x33, 0x41, 0x08, 
  0x4C, 0xCB, 0xC8, 0xD6, 0x36, 0xC0, 0x28, 0x65, 0x06, 0x0D, 0x11, 0xC4, 
  0x98, 0x08, 0x62, 0x22, 0x62, 0x22, 0x03, 0x90, 0x30, 0x1B, 0x33, 0x41, 
  0xC8, 0x4C, 0xCB, 0xC8, 0xD6, 0x36, 0xC6, 0x38, 0x65, 0x06, 0x8D, 0x19, 
  0xC0, 0x98, 0x49, 0x22, 0x66, 0x62, 0x26, 0x82, 0x91, 0x30, 0x1B, 0x31, 
  0x41, 0xC8, 0x4C, 0xCB, 0xC8, 0xD4, 0x36, 0xC6, 0x38, 0x6D, 0x86, 0x8D, 
  0x11, 0x80, 0x90, 0x49, 0x22, 0x66, 0x62, 0x26, 0x86, 0x91, 0x30, 0x1A, 
  0x31, 0x01, 0xC8, 0x4C, 0xCB, 0xC8, 0xD6, 0x36, 0xC0, 0x28, 0x4B, 0x86, 
  0x8D, 0x18, 0x80, 0x90, 0x49, 0x22, 0x66, 0x62, 0x26, 0x06, 0x91, 0x30, 
  0x1B, 0x11, 0x61, 0xC8, 0x4C, 0x9B, 0xC8, 0xD6, 0x26, 0x80, 0x28, 0x4B, 
  0x86, 0x8C, 0x08, 0x80, 0x90, 0x19, 0x62, 0x66, 0x62, 0x62, 0x06, 0xB1, 
  0x30, 0x1A, 0x11, 0x61, 0xC8, 0x4C, 0x9B, 0xC8, 0xD4, 0x26, 0x82, 0x68, 
  0x4B, 0x86, 0x8D, 0x08, 0x80, 0x91, 0x19, 0x66, 0x66, 0x66, 0x62, 0x02, 
  0xB1, 0x30, 0x1A, 0x31, 0x21, 0x48, 0x44, 0x9A, 0xC8, 0xD4, 0x26, 0x86, 
  0x68, 0x4A, 0x86, 0xCD, 0x08, 0x80, 0x91, 0x51, 0x46, 0x66, 0x66, 0x62, 
  0x42, 0xB1, 0x30, 0x1A, 0x31, 0x21, 0x48, 0x46, 0x93, 0xC8, 0xD4, 0x2E, 
  0x86, 0x28, 0x4A, 0x86, 0xCC, 0x0C, 0x86, 0x91, 0x51, 0x44, 0x66, 0x66, 
  0x62, 0x42, 0xB1, 0x30, 0x1A, 0x11, 0x60, 0x48, 0x46, 0x97, 0xC9, 0x94, 
  0x2E, 0x82, 0x68, 0xCA, 0x86, 0xCC, 0x0C, 0xC2, 0x11, 0xD1, 0xC4, 0x66, 
  0x66, 0x62, 0x42, 0xF1, 0x20, 0x1A, 0x91, 0x61, 0x48, 0x46, 0x97, 0x69, 
  0xD5, 0x2E, 0x86, 0x48, 0xCA, 0x86, 0xC4, 0x04, 0x82, 0x11, 0x91, 0xC4, 
  0x66, 0x66, 0x46, 0x42, 0xE1, 0x20, 0x1A, 0x91, 0x61, 0x48, 0x46, 0xB7, 
  0x49, 0xF5, 0x6E, 0x86, 0x58, 0xCA, 0x84, 0x46, 0x04, 0xC3, 0x11, 0xA3, 
  0xC4, 0x66, 0x64, 0x46, 0x42, 0x60, 0x20, 0x12, 0x93, 0x61, 0x48, 0x46, 
  0xB3, 0x49, 0x76, 0x2E, 0x86, 0x58, 0xCA, 0xC4, 0x46, 0x04, 0xC1, 0x31, 
  0xA3, 0x84, 0x66, 0x64, 0x44, 0x02, 0x61, 0x20, 0x12, 0x11, 0x01, 0x48, 
  0x46, 0xA6, 0x69, 0x76, 0x66, 0x82, 0x58, 0xCA, 0xC6, 0x46, 0x06, 0x41, 
  0x33, 0x23, 0x84, 0x46, 0x44, 0x4C, 0x06, 0x63, 0x20, 0x12, 0x11, 0x41, 
  0x48, 0x46, 0xA6, 0x49, 0x77, 0x67, 0x86, 0x58, 0x9A, 0xC6, 0x46, 0x82, 
  0x41, 0x33, 0x23, 0x84, 0x64, 0x44, 0xCC, 0x06, 0x62, 0x30, 0x92, 0x91, 
  0x41, 0x48, 0x46, 0x26, 0x49, 0x77, 0x67, 0x86, 0x50, 0x8A, 0x46, 0x46, 
  0x82, 0x41, 0x31, 0x63, 0x8C, 0x64, 0x44, 0xCC, 0x46, 0xE2, 0x30, 0x92, 
  0x91, 0x00, 0x48, 0x46, 0x2E, 0x09, 0xD5, 0x6F, 0x84, 0x50, 0x8A, 0x66, 
  0x46, 0x82, 0x60, 0x23, 0x66, 0x8C, 0x4C, 0x44, 0xCC, 0x06, 0xE2, 0x30, 
  0x93, 0x11, 0x60, 0x4C, 0x46, 0x2F, 0x89, 0xF5, 0x6C, 0x84, 0x70, 0x8E, 
  0x66, 0x66, 0x82, 0x60, 0x22, 0x46, 0x89, 0x4D, 0x4C, 0xCC, 0x06, 0xE2, 
  0x30, 0x93, 0xB1, 0x60, 0x4C, 0x46, 0x2F, 0x29, 0xF6, 0x6C, 0x84, 0x71, 
  0x8E, 0x66, 0x66, 0xC2, 0x20, 0x22, 0xC6, 0x88, 0x69, 0xCC, 0xCC, 0x06, 
  0x62, 0x30, 0x92, 0xB1, 0x00, 0x4C, 0x46, 0x2F, 0x29, 0xD6, 0x6D, 0x84, 
  0x31, 0x8E, 0x62, 0x66, 0x02, 0x20, 0x26, 0xCE, 0x98, 0x49, 0xCC, 0xC8, 
  0x06, 0x62, 0x30, 0x90, 0xB1, 0x60, 0x4C, 0x42, 0x2F, 0x29, 0xD7, 0x6D, 
  0x84, 0xF0, 0x8E, 0x62, 0x66, 0x42, 0x20, 0x26, 0x8C, 0x11, 0x49, 0xCC, 
  0x8C, 0x06, 0xC2, 0x31, 0x91, 0xB1, 0x60, 0x6C, 0x62, 0x2F, 0x29, 0x95, 
  0x6C, 0x0C, 0x30, 0x8E, 0x22, 0x22, 0x42, 0x30, 0x22, 0x8C, 0x11, 0x4D, 
  0xCC, 0x88, 0x06, 0xC2, 0x31, 0x91, 0xB1, 0x61, 0x6C, 0x62, 0x2B, 0x29, 
  0xB5, 0x6F, 0x8C, 0xB1, 0x8A, 0x32, 0x23, 0x62, 0x10, 0x23, 0x8C, 0x11, 
  0x59, 0x8C, 0x88, 0x04, 0x42, 0x21, 0x91, 0xA1, 0x61, 0x64, 0x62, 0x2F, 
  0x69, 0xB4, 0x6D, 0x80, 0xB1, 0x9A, 0x32, 0x23, 0x63, 0x18, 0x23, 0x8C, 
  0x31, 0x59, 0x8C, 0x88, 0x04, 0x42, 0x23, 0x91, 0x21, 0x60, 0x64, 0x62, 
  0x2E, 0xA9, 0xB4, 0x4D, 0x0C, 0xB1, 0x9A, 0x32, 0x33, 0x23, 0x88, 0x31, 
  0x8C, 0x33, 0x51, 0x84, 0x88, 0x44, 0x44, 0x33, 0x91, 0xB1, 0x21, 0x24, 
  0x22, 0x2F, 0xAD, 0xB6, 0x4D, 0x0C, 0xA1, 0x1A, 0x33, 0x31, 0x22, 0xCC, 
  0x30, 0x88, 0x30, 0x51, 0x84, 0x98, 0x44, 0x46, 0x33, 0x91, 0xA1, 0x21, 
  0x24, 0x22, 0x2B, 0xAD, 0xA6, 0x4D, 0x08, 0xA3, 0x1A, 0x13, 0x31, 0x33, 
  0x44, 0x30, 0x88, 0x25, 0x53, 0x8C, 0x98, 0x44, 0xC4, 0x22, 0x91, 0xB1, 
  0x21, 0x24, 0x26, 0x2B, 0xAD, 0xA4, 0x4D, 0x08, 0xA3, 0x1E, 0x93, 0x31, 
  0x33, 0x66, 0x30, 0x98, 0x25, 0x53, 0x8C, 0x91, 0x4C, 0xC4, 0x32, 0x99, 
  0x31, 0x20, 0x24, 0x22, 0x2B, 0xA5, 0xA4, 0x49, 0x0C, 0xA3, 0x16, 0x93, 
  0x31, 0x31, 0x32, 0x10, 0x10, 0x20, 0x53, 0x8C, 0x91, 0xCC, 0x84, 0x32, 
  0x99, 0x11, 0x21, 0x24, 0x26, 0x2B, 0xA5, 0xA4, 0x4B, 0x0C, 0xA3, 0x16, 
  0x99, 0x91, 0x11, 0x32, 0x18, 0x30, 0x28, 0xD3, 0x84, 0x90, 0xC8, 0x84, 
  0x22, 0x11, 0x11, 0x21, 0x24, 0x26, 0x2F, 0xA5, 0xA6, 0xC9, 0x08, 0xA3, 
  0x34, 0x99, 0x91, 0x10, 0x13, 0x8C, 0x63, 0xAB, 0xD3, 0x84, 0xB0, 0x89, 
  0x84, 0x22, 0x11, 0x31, 0x20, 0x24, 0x26, 0x6D, 0xA3, 0xA0, 0xCD, 0x08, 
  0xA2, 0x34, 0x99, 0x91, 0x18, 0x1B, 0xE6, 0x47, 0xAA, 0x93, 0x84, 0xB0, 
  0x98, 0x84, 0x22, 0x11, 0x31, 0x20, 0x24, 0x26, 0x6D, 0xA3, 0xA6, 0xC9, 
  0x08, 0x22, 0x34, 0x9B, 0x91, 0x10, 0x11, 0xF3, 0xCC, 0x6A, 0x97, 0x84, 
  0xB0, 0x19, 0x84, 0x30, 0x91, 0x31, 0x21, 0x24, 0x26, 0x4D, 0xB7, 0xA6, 
  0xDD, 0x08, 0x20, 0x35, 0x99, 0x91, 0x90, 0x11, 0xFB, 0x9B, 0x43, 0x96, 
  0x8C, 0xB0, 0x91, 0x84, 0x22, 0x91, 0x21, 0x21, 0x24, 0x24, 0x4D, 0xB7, 
  0xA6, 0xDD, 0x08, 0x62, 0x35, 0x89, 0x91, 0x90, 0x11, 0x79, 0x17, 0x43, 
  0x94, 0x8C, 0xB0, 0x91, 0x85, 0x22, 0x91, 0x21, 0x21, 0x24, 0x24, 0x4D, 
  0xB7, 0x24, 0xD9, 0x08, 0x22, 0x25, 0x89, 0x91, 0x90, 0x11, 0xF9, 0xB6, 
  0x41, 0x94, 0x8C, 0xB0, 0x11, 0x85, 0x27, 0x31, 0x21, 0x01, 0x24, 0x24, 
  0x4D, 0x9E, 0x25, 0xD9, 0x08, 0x62, 0x25, 0x89, 0x91, 0x91, 0x31, 0x99, 
  0xB3, 0x55, 0x94, 0x8C, 0xB1, 0x31, 0x8D, 0xA1, 0x31, 0x21, 0x21, 0x24, 
  0x24, 0x45, 0x9E, 0x24, 0xDD, 0x18, 0x62, 0x25, 0x89, 0x91, 0x11, 0x21, 
  0x59, 0x37, 0x45, 0x9C, 0x88, 0xA1, 0x31, 0x8D, 0x24, 0x31, 0x21, 0x21, 
  0x24, 0x24, 0x45, 0xB2, 0x64, 0xDD, 0x18, 0x64, 0x65, 0x89, 0x11, 0x11, 
  0x21, 0x79, 0xB7, 0x41, 0x94, 0x88, 0xA1, 0x31, 0x8D, 0x24, 0x31, 0x63, 
  0x21, 0x24, 0x24, 0x45, 0x3A, 0x64, 0xD9, 0x18, 0x64, 0x65, 0x89, 0x31, 
  0x31, 0x62, 0xFB, 0xBF, 0x4C, 0x9C, 0x98, 0xB1, 0x31, 0x8D, 0x24, 0x31, 
  0x63, 0x21, 0x24, 0x24, 0x45, 0xBA, 0x24, 0xD9, 0x10, 0x66, 0x65, 0x8B, 
  0x31, 0x23, 0x62, 0xF2, 0xDF, 0x44, 0x9C, 0x98, 0xB1, 0x31, 0x8D, 0xA1, 
  0x11, 0x63, 0x21, 0x24, 0x34, 0x4D, 0xBA, 0x25, 0x9B, 0x10, 0x64, 0x65, 
  0x8B, 0x31, 0x62, 0x42, 0xF2, 0xDF, 0xD6, 0x9C, 0x98, 0xB1, 0x31, 0x89, 
  0x31, 0x11, 0x63, 0x01, 0x24, 0x14, 0x45, 0xB2, 0x25, 0xBB, 0x10, 0x60, 
  0x65, 0x1A, 0x31, 0x42, 0xC6, 0xE6, 0x4F, 0x53, 0x9C, 0x18, 0x91, 0x31, 
  0x8D, 0x37, 0x19, 0x63, 0x21, 0x24, 0x14, 0x45, 0x3A, 0x25, 0xB1, 0x30, 
  0x64, 0x6D, 0x1A, 0x21, 0xC6, 0x84, 0xCC, 0x67, 0x5B, 0x9E, 0x08, 0x91, 
  0x31, 0x88, 0x35, 0x19, 0x63, 0x21, 0x64, 0x9C, 0x45, 0x3B, 0x65, 0x91, 
  0x30, 0x44, 0x65, 0x12, 0x21, 0x86, 0x88, 0x1D, 0x20, 0x4B, 0x9E, 0x08, 
  0x11, 0x31, 0x88, 0x15, 0x19, 0x63, 0x01, 0x64, 0x9C, 0x64, 0x3B, 0x65, 
  0x91, 0x20, 0x44, 0x65, 0x12, 0x21, 0x84, 0x19, 0x79, 0x20, 0x4D, 0x9C, 
  0x08, 0x13, 0x31, 0x08, 0x15, 0x19, 0x63, 0x21, 0x44, 0xDC, 0x64, 0x29, 
  0x65, 0xB1, 0x20, 0x40, 0x4D, 0x32, 0x21, 0x04, 0x11, 0x73, 0x30, 0x4D, 
  0x98, 0x18, 0x1B, 0x31, 0x09, 0x17, 0x09, 0x23, 0x21, 0x46, 0xC4, 0x64, 
  0x2B, 0x65, 0xB1, 0x20, 0x44, 0x4D, 0x32, 0x61, 0x8C, 0x31, 0xE2, 0x90, 
  0x47, 0x9C, 0x18, 0x1B, 0x31, 0x08, 0x17, 0x09, 0x23, 0x21, 0x46, 0x94, 
  0x24, 0x3B, 0x6D, 0xB3, 0x20, 0x44, 0x4D, 0x36, 0x63, 0x88, 0x21, 0x86, 
  0x98, 0x67, 0x98, 0x18, 0x1B, 0x31, 0x08, 0x33, 0x19, 0x63, 0x61, 0x46, 
  0xD4, 0x24, 0x2B, 0x6D, 0xB3, 0x20, 0xC4, 0x49, 0x26, 0x42, 0x08, 0x60, 
  0x84, 0x99, 0x61, 0x98, 0x19, 0x0B, 0x31, 0x08, 0x33, 0x09, 0x63, 0x21, 
  0x46, 0xD4, 0x64, 0x2B, 0x6D, 0xB3, 0x60, 0xC4, 0x49, 0x26, 0x42, 0x18, 
  0x61, 0x88, 0x99, 0x62, 0x98, 0x11, 0x0B, 0x31, 0x09, 0x37, 0x09, 0x63, 
  0x23, 0x46, 0xDC, 0x64, 0x2B, 0x69, 0xB1, 0x21, 0xC4, 0x49, 0x64, 0x46, 
  0x10, 0x21, 0x08, 0x99, 0x23, 0x9C, 0x11, 0x0B, 0x31, 0x09, 0x37, 0x09, 
  0x63, 0x21, 0x66, 0xDC, 0x64, 0x3B, 0x69, 0xB1, 0x21, 0xC4, 0x48, 0x64, 
  0x46, 0x30, 0x33, 0x30, 0x99, 0x23, 0x9C, 0x10, 0x0B, 0x31, 0x08, 0x33, 
  0x09, 0x43, 0x21, 0x46, 0x5C, 0x64, 0x3B, 0x69, 0xB1, 0x20, 0xC4, 0x48, 
  0x44, 0xC4, 0x20, 0xF3, 0x30, 0x89, 0x33, 0x9C, 0x10, 0x0B, 0x31, 0x08, 
  0xA6, 0x09, 0x43, 0x21, 0x46, 0x5C, 0x66, 0x39, 0x69, 0x91, 0x21, 0xC4, 
  0xCA, 0xCC, 0xCC, 0x20, 0xE2, 0x31, 0x8B, 0x33, 0x9C, 0x18, 0x0B, 0x31, 
  0x01, 0xA6, 0x09, 0x43, 0x23, 0x46, 0x5C, 0x26, 0x39, 0x69, 0x91, 0x61, 
  0xC4, 0x48, 0x8C, 0x88, 0x60, 0x86, 0x21, 0x8B, 0x33, 0xDC, 0x18, 0x0B, 
  0x31, 0x0B, 0xB6, 0x09, 0x43, 0x23, 0x66, 0xCC, 0x66, 0x39, 0x6B, 0xB1, 
  0x61, 0xC4, 0x48, 0x88, 0x99, 0x41, 0x8C, 0x21, 0x8B, 0x11, 0x94, 0x18, 
  0x0B, 0x31, 0x1B, 0xB6, 0x19, 0x63, 0x03, 0x26, 0x44, 0x64, 0x39, 0x2B, 
  0xB1, 0x21, 0xC4, 0x4B, 0x88, 0x11, 0x43, 0x08, 0x23, 0x8B, 0x11, 0x94, 
  0x08, 0x1B, 0x31, 0x1A, 0x96, 0x19, 0x43, 0x23, 0x06, 0x5C, 0x64, 0x3B, 
  0x2A, 0x91, 0x21, 0xC4, 0x4B, 0x98, 0x11, 0xC2, 0x08, 0x23, 0xDB, 0x19, 
  0x94, 0x08, 0x1A, 0x21, 0x08, 0xB6, 0x19, 0x43, 0x22, 0x26, 0x5C, 0x66, 
  0x3B, 0x2A, 0x19, 0x21, 0xC4, 0x48, 0x18, 0x31, 0x86, 0x18, 0x23, 0x9A, 
  0x11, 0x94, 0x08, 0x12, 0x21, 0x02, 0xB6, 0x19, 0x43, 0x22, 0x66, 0x5C, 
  0x66, 0x3B, 0x2A, 0x41, 0x21, 0xC0, 0x4B, 0x10, 0x23, 0x86, 0x11, 0x22, 
  0x8A, 0x11, 0x96, 0x08, 0x12, 0x21, 0x18, 0xB6, 0x11, 0x43, 0x23, 0x66, 
  0x5C, 0x26, 0x3B, 0x3A, 0x41, 0x21, 0x84, 0x5A, };
